<?xml version="1.0" encoding="UTF-8"?><svg id="a" xmlns="http://www.w3.org/2000/svg" viewBox="0 0 406.86 102.61"><defs><style>.b{fill:#23336a;}.c{fill:#232322;}.d{fill:#5b1d41;}</style></defs><g><path class="b" d="M99.48,.8c1.02,.87,2.18,1.67,3.2,2.48,1.75,1.38,3.57,2.69,5.32,4.08,1.46,1.09,2.91,2.18,4.44,3.35,1.38,1.09,2.77,2.11,4.15,3.2l3.5,2.62c1.75,1.31,3.42,2.62,5.17,3.93,1.46,1.09,2.99,2.26,4.44,3.35,1.38,1.02,2.77,2.11,4.15,3.13l.22,.22c.07,.22,.22,.36,.22,.58v14.13c0,.36-.15,.44-.51,.44s-.73-.15-1.09,.07h0c-.07,0-.22,0-.29,.07-.58,.29-.8,.66-.73,1.31v.73c0,.29,.15,.29,.36,.29h1.09c-.51,.44-1.17,.51-1.38,1.17-.15,.58-.15,1.17,0,1.75,.07,.15,.07,.22,.15,.36,0,.15,.07,.22,.22,.22,.07,0,.15,.07,.22,.07h.07c.44,.15,.95,.15,1.38,0,.36-.07,.51,0,.51,.44v2.26h0c-.07,0-.07,.07-.15,.07h-.29c-.36,.07-.73-.15-1.09,.15-.22,0-.51,0-.73,.07-1.02,0-1.97,0-2.91,.36-1.17,.07-2.33,.29-3.42,.51-1.82,.36-3.64,.66-5.46,1.17-1.02,.29-2.11,.51-3.13,.87-1.17,.36-2.4,.73-3.57,1.17-1.02,.36-2.04,.8-3.06,1.17-1.17,.44-2.33,1.02-3.42,1.53-1.31,.58-2.62,1.31-3.86,2.04-1.02,.58-2.04,1.24-3.06,1.89-1.24,.8-2.4,1.6-3.57,2.48-2.62,1.97-5.17,4.15-7.5,6.48-1.17,1.17-2.26,2.4-3.35,3.64-1.17,1.38-2.26,2.77-3.35,4.22-1.17,1.6-2.33,3.28-3.35,5.02-.95,1.53-1.75,3.06-2.62,4.59-.8,1.53-1.53,3.06-2.26,4.66l-1.31,3.28c-.36,.95-.73,1.97-1.02,2.99-.07,.29,0,.44,.29,.44h55.2c.29,0,.66,.15,.73-.15s-.07-.66-.29-.87c-.44-.51-.87-1.02-1.46-1.38-.51-.29-.22-.73-.22-1.09s.36-.22,.51-.22q1.31-.15,1.89,1.09c.51,1.02,1.02,1.97,1.53,2.99,.07,.22,1.02,.58,1.24,.51,.15-.07,.15-.22,.15-.29,.15-.51,.15-1.02,.07-1.53-.07-.36-.07-.73-.15-1.09,0-.29-.07-.44-.29-.66-.44-.51-.44-1.17-.22-1.82s.73-1.24,.8-1.97c.07-.87,.07-1.67-.36-2.4-.36-.66-.95-.8-1.6-1.02-.58-.22-1.17-.29-1.67-.51-.51-.15-.58-.36-.36-.8,.44-.87,1.24-1.38,2.04-1.82,.36-.15,.66,.22,1.02,.36,1.09,.44,2.11,.87,3.13,1.31,.29,.15,.44,.29,.44,.58v11.8c0,.29-.07,.44-.44,.44H60.15c-.22,0-.36-.07-.36-.29V26.44c0-1.09,0-1.02,.87-1.6,1.6-1.02,3.2-2.04,4.81-2.99,1.75-1.09,3.57-2.18,5.39-3.28,1.89-1.17,3.71-2.33,5.61-3.57,1.31-.87,2.69-1.67,4.08-2.55,1.6-1.02,3.28-2.04,4.88-3.06,1.53-1.02,3.2-1.97,4.73-2.91,1.38-.87,2.77-1.75,4.08-2.62,1.6-1.02,3.13-1.97,4.73-2.91l.07-.07c.22-.07,.36-.07,.44-.07Zm-32.84,90.59h0c-.07,0-.07-.07-.15-.07-.58-.15-1.17-.36-1.67-.66-.51-.22-.95-.15-1.38,.29s-.66,1.02-.87,1.6c-.15,.51,.07,1.09,.51,1.31,.29,.15,.58,.29,.95,.44,.8,.29,1.6,.66,2.4,.95,.87,.36,1.6,.15,2.04-.73,.22-.36,.29-.8,.44-1.24,.15-.51-.07-1.02-.51-1.24-.29-.15-.58-.29-.87-.36-.07,0-.07-.07-.15-.07h0c-.15-.15-.36-.15-.51-.15h0c-.15,0-.15-.07-.22-.07Zm16.31-22.87h0c-.15-.07-.15-.15-.22-.15-.07-.07-.07-.36-.29-.22-.58-.51-1.09-.95-1.67-1.46-.36-.29-.73-.44-1.24-.15-.58,.29-1.02,.73-1.38,1.24-.58,.95-.29,1.31,.29,1.82l2.62,2.18c.36,.29,.8,.44,1.24,.22,.58-.29,1.02-.66,1.38-1.24,.44-.66,.44-1.17,.07-1.6-.22-.22-.44-.36-.66-.58-.07,0-.15-.07-.15-.07h0Zm-8.16,8.67h0c-.07-.22-.22-.22-.29-.22-.44-.29-.95-.58-1.38-.87-.44-.29-.8-.22-1.31,0-.44,.22-.66,.58-.87,.95-.66,1.17-.51,1.6,.58,2.33,.8,.51,1.67,1.02,2.48,1.53,.58,.36,1.17,.36,1.75-.07,.44-.36,.73-.87,.95-1.38,.29-.58,.07-1.24-.51-1.53-.29-.15-.66-.36-.87-.58-.07-.07-.22-.07-.29-.07s-.07-.07-.07-.07c-.07,.07-.15,0-.15,0Zm38.74-29.35c.07-.15,0-.29-.15-.44-.15-.29-.22-.66-.36-.95-.15-.36-.36-.58-.73-.66-.73-.15-1.46,0-2.11,.36-.73,.44-.95,.8-.66,1.6,.36,1.17,.73,2.26,1.09,3.42,.07,.29,.29,.44,.58,.58,.73,.29,2.4-.07,2.99-.95,.36-.22,.29-.51,0-.8v-.22c.07-.66-.51-1.17-.44-1.89-.07-.07-.22-.07-.22-.07h0Zm-18.86,9.61h0c-.44-.44-.8-.95-1.17-1.53-.29-.44-.73-.58-1.24-.51-.66,.07-1.09,.44-1.53,.87-.66,.58-.73,1.38-.15,2.04,.73,.8,1.31,1.67,1.97,2.48,.29,.36,.66,.66,1.09,.58,.95-.15,1.67-.66,2.18-1.53,.15-.29,.15-.58,0-.87-.29-.36-.51-.73-.8-1.09,0-.15-.07-.22-.22-.22-.15-.15-.15-.22-.15-.22Zm23.81-7.36c.15,0,.36-.07,.51-.07q.66-.15,.51-.8c-.44-1.82-.87-3.57-1.31-5.39q-.22-1.09-1.31-.8c-.44,.07-.58,.29-.44,.66,.07,.29,.29,.66,.15,.8-.15,.22-.51,0-.8,.15h-.15c-.8,.29-1.09,.66-.87,1.31,.29,.95,.51,1.89,.66,2.84,.07,.44,.22,.95,.44,1.31,.29,.51,1.46,.58,2.04,.15,.22-.07,.29-.22,.58-.15Zm5.02-6.92c-.29,.07-.66,.15-.95,.22-.22,0-.29,.15-.22,.36,.07,.44,.15,.95,.22,1.38,.22,1.02,.36,1.97,.51,2.99,0,.15,0,.29-.15,.29-.15,.07-.29,0-.36-.22-.07-.15-.07-.22-.07-.36-.15-1.09-.36-2.18-.51-3.28-.22-1.31-.07-1.09-1.38-.87-.36,.07-.44,.22-.36,.58,.22,1.38,.58,2.77,.66,4.22,.07,.8,.8,1.24,1.53,1.02,.66-.22,1.38-.29,2.04-.36,.29,0,.36-.15,.29-.44-.07-.44-.22-.87-.29-1.38-.15-1.24-.44-2.4-.58-3.64,.07-.36,.07-.58-.36-.51Zm-35.32,22.94l-.15-.15c-1.09-1.09-2.26-2.11-3.35-3.2-.66-.66-1.31-.51-1.82,.07-.44,.51-.95,.87-1.38,1.38-.22,.29-.22,.44,0,.66,1.09,1.02,2.18,2.04,3.28,3.13q.73,.73,1.46,0s.07-.07,.15-.07c.29-.22,.29-.44,0-.66-1.02-.95-2.04-1.97-3.06-2.91-.15-.15-.36-.22-.15-.44,.15-.15,.36-.07,.51,.07,.95,.95,1.97,1.89,2.91,2.91,.22,.22,.51,.44,.8,.07,.15-.22,.44-.44,.66-.66,0-.07,.07-.15,.15-.22Zm15.07-17.19c-.36,0-.73,0-.87,.22-.51,.51-1.24,.58-1.82,.95-.22,.15-.29,.15-.15,.44,.87,1.6,1.75,3.2,2.55,4.88,.07,.15,.15,.22,.29,.15,.36-.22,.73-.44,1.17-.58,.07-.07,.15-.07,.07-.22-.73-1.31-1.38-2.55-2.11-3.86-.07-.15-.22-.36,0-.51s.36,.07,.44,.22c.29,.51,.51,1.02,.8,1.53,.44,.8,.87,1.53,1.24,2.33,.07,.15,.15,.29,.29,.22,.36-.22,.8-.36,1.17-.58,.15-.07,.07-.22,0-.29-.66-1.24-1.38-2.55-2.04-3.79-.29-.66-.44-1.24-1.02-1.09Zm26.51-4.59c0-.15-.07-.29,0-.51,.07-.73-.51-1.09-1.17-1.17-.51-.07-1.02,0-1.53,.07-.73,.15-1.17,.73-1.09,1.46,.15,1.09,.22,2.18,.29,3.28,.07,.73,.44,1.09,1.17,1.17,.44,.07,.87,0,1.38-.07,.87-.15,1.31-.58,1.24-1.53q-.15-1.31-1.38-1.17c-.29,0-.36,.15-.29,.36,.07,.36,.07,.73,.07,1.02,0,.15,0,.36-.22,.36s-.22-.15-.22-.36l-.22-1.97c-.07-.44-.07-.95-.15-1.38,0-.22,0-.36,.22-.36s.22,.15,.29,.36v.51q.07,.8,.87,.73c.95,.07,.73,.15,.73-.8Zm-40.42,20.32c.8,0,1.24-.51,1.75-.95,.36-.29,.58-.66,.58-1.09,0-.29-.95-1.75-1.24-1.67-.36,0-.58,.36-.87,.66,0,0-.07,0-.07,.07-.15,.22-.22,.36,0,.58s.44,.44,.66,.73c.07,.07,.29,.22,.07,.36s-.36,.07-.51-.07c-.29-.29-.58-.66-.87-.95-.44-.51-.95-1.02-1.38-1.53-.07-.15-.22-.29-.07-.44,.22-.15,.29,0,.44,.15,.22,.22,.44,.44,.58,.66,.22,.22,.44,.29,.66,.07s.36-.36,.58-.51,.22-.29,.07-.44c-.29-.36-.58-.66-.95-1.02-.29-.29-.66-.36-1.09-.22-.66,.29-1.17,.73-1.6,1.24-.29,.44-.29,1.02,.07,1.46,.8,.95,1.67,1.82,2.48,2.77,.15,0,.44,.07,.73,.15Zm-15.37,18.86c0-.29-.07-.51-.29-.73-.44-.44-1.02-.66-1.46-.95-.07-.07-.22-.07-.29,0-.22,.36-.58,.8-.66,1.17,0,.22,.51,.36,.8,.51,.07,.07,.15,.15,.29,.22,.22,.07,.36,.15,.22,.36s-.29,.15-.44,0c-1.02-.58-2.04-1.17-3.06-1.67-.15-.07-.29-.15-.15-.36,.15-.15,.22-.22,.44-.07,.29,.22,.66,.36,1.02,.58,.07,.07,.22,.15,.29,0,.22-.36,.51-.73,.66-1.09,.07-.15-.07-.29-.22-.36-.36-.22-.8-.44-1.17-.58-.29-.15-.58-.07-.87,.07-.66,.29-.95,.95-1.24,1.53-.36,.73-.15,1.38,.44,1.67,1.02,.58,2.04,1.09,3.06,1.75,.44,.29,1.02,.29,1.46,0,.58-.51,.95-1.24,1.17-2.04Zm-4.44,5.32c0-.07,.07-.07,.07-.15,.36,0,.66,.07,1.02,.15,.29,.07,.58,.07,.66-.36,.07-.29,.22-.58,.44-.8,.22-.29,.07-.36-.22-.36-.95-.07-1.82-.07-2.77-.22-.22-.07-.44-.15-.58-.29-.36-.44-.8-.87-1.24-1.24-.22-.22-.44-.66-.73-.58-.22,.07-.36,.51-.51,.8s-.07,.51,.15,.66c.29,.15,.51,.36,.73,.66-.36,.07-.73-.07-1.02-.15-.22-.07-.36-.07-.51,.15-.15,.29-.29,.66-.51,1.02-.07,.22-.07,.29,.22,.36,.8,.15,1.67,.07,2.48,.15,.22,0,.36,.07,.51,.22,.58,.66,1.31,1.31,1.89,1.97,.15,.22,.29,.22,.44-.07,.07-.29,.22-.51,.36-.8,.15-.22,.07-.44-.15-.66-.22,.07-.51-.15-.73-.44Zm5.53-19.52c-.07,.07-.15,.15-.22,.15-.22,.22-.36,.51-.58,.66-.29,.22-.15,.44,.07,.58,.44,.29,.87,.58,1.24,.95,1.38,1.02,2.77,2.11,4.15,3.13,.15,.07,.29,.15,.36,0,.22-.29,.51-.58,.73-.87,.15-.15,.15-.29-.07-.36-1.67-1.17-3.28-2.4-4.88-3.64-.22-.22-.51-.36-.8-.58Zm3.86,6.99c0-.22-.15-.29-.29-.36-.95-.66-1.82-1.31-2.77-1.97-.87-.66-1.82-1.24-2.69-1.89-.22-.15-.36-.07-.51,.07-.15,.22-.29,.44-.51,.73-.22,.29-.07,.44,.15,.58,1.89,1.24,3.64,2.55,5.46,3.79,.07,.07,.22,.15,.36,.07,.15,0,.8-.95,.8-1.02Zm22.72-20.1c-.29-.44-.51-.87-.73-1.24-.58-1.02-1.24-1.97-1.89-2.99-.44-.66-.51-1.02-1.24-.36,0,0-.07,.07-.15,.07-.58,.22-.58,.29-.22,.8,.58,.87,1.09,1.75,1.6,2.62,.36,.58,.8,1.09,1.09,1.75,.07,.22,.29,.15,.36,.07,.44-.29,.95-.36,1.17-.73Zm-4.59-4.52h.15l1.09-.66c.15-.07,.07-.15,0-.29q-.44-.73-1.17-.36c-.15,.07-.22,.15-.36,.22-.15,.07-.36,.07-.22,.29,.15,.36,.29,.58,.51,.8Z"/><path class="b" d="M0,90.23H1.82c.36,0,.44,.15,.44,.44v8.52c0,.22-.07,.58,.29,.58s.29-.36,.29-.58v-8.59c0-.29,.07-.44,.44-.44h1.53c.29,0,.36,.07,.36,.36v7.94c0,.66,0,1.38-.36,1.97-.36,.51-.73,.95-1.38,1.09-.07,0-.15,.07-.15,.15h-1.17c-.44-.22-.95-.36-1.31-.73C.36,100.57,.29,100.06,0,99.62v-9.39Z"/><path class="b" d="M33.5,101.81c0-.22-.22-.15-.36-.22-.66-.29-1.24-.73-1.38-1.53-.15-.73-.22-1.46-.22-2.26,0-.29,.07-.36,.36-.36h1.38c.29,0,.44,.07,.36,.36v1.38c0,.29,.07,.58,.44,.58s.36-.29,.44-.58c.22-1.09-.29-1.89-1.17-2.48-.29-.22-.58-.51-.87-.73-.51-.44-.8-.95-.95-1.6-.22-1.17-.22-2.26,.22-3.42,.15-.36,.51-.58,.87-.8,.95-.51,2.77-.22,3.42,.66,.36,.44,.36,1.02,.44,1.6q.07,1.17-1.09,1.17t-1.17-1.09c0-.22,.07-.66-.29-.66s-.36,.36-.44,.66c-.15,1.02,.51,1.53,1.17,2.04,1.31,.95,2.04,2.11,1.89,3.79-.07,.51,0,1.02-.07,1.6-.15,.87-.66,1.31-1.46,1.6-.15,.07-.29,0-.36,.22-.22,.07-.66,.07-1.17,.07Z"/><path class="b" d="M9.03,72.97c-.07,.95-.07,1.82-.22,2.69-.36,3.28-.51,6.63-.87,9.9-.07,.36-.07,.8-.07,1.17,0,.29-.07,.36-.36,.36H2.55c-.36,0-.44-.15-.44-.44-.07-1.46-.15-2.91-.22-4.3-.22-3.06-.44-6.19-.66-9.25-.15-1.67-.22-3.35-.36-5.02-.29-3.2-.51-6.41-.73-9.69,0-.36,.07-.44,.36-.44h3.71c.36,0,.36,.15,.44,.44,.07,2.26,.07,4.44,.29,6.7,.15,2.26,.15,4.44,.29,6.7,.07,1.31,.15,2.62,.22,4.01,0,.07,0,.22,.15,.29,.15-.22,.07-.51,.07-.8l.22-5.68c.22-2.99,.44-5.97,.66-9.03l.22-2.18c0-.36,.15-.44,.44-.44h3.93c.36,0,.44,.07,.51,.44,.07,1.75,.15,3.42,.22,5.17,.15,1.75,.07,3.57,.22,5.32,.22,2.84,.22,5.61,.44,8.45,0,.07,0,.15,.07,.15,.07-1.09,.07-2.26,.15-3.35,.22-4.01,.51-8.01,.73-12.02,.07-1.31,.22-2.55,.29-3.86,0-.29,.07-.36,.36-.36h3.86c.29,0,.36,.07,.36,.36-.22,2.77-.44,5.46-.58,8.23,0,.36-.07,.8-.07,1.17-.15,2.69-.36,5.39-.51,8.01-.22,2.99-.44,5.97-.66,9.03-.07,.66-.15,1.31-.15,1.97,0,.29-.15,.36-.36,.36h-5.02c-.22,0-.36-.07-.36-.29-.22-1.82-.44-3.64-.58-5.46-.29-2.69-.44-5.39-.66-8.08-.22,0-.22-.07-.36-.22Zm-3.57,3.5c0-.07,.07-.07,0,0q0-.07,0,0c0-.07,0,0,0,0h0Z"/><path class="b" d="M18.28,27.38h2.4c.29,0,.44,.07,.51,.36,.36,1.97,.73,4.01,1.09,5.97,.29,1.82,.73,3.64,1.02,5.46,.36,1.82,.73,3.71,1.02,5.53,.22,1.31,.51,2.62,.73,3.93,.36,2.04,.8,4.01,1.17,5.97,.07,.36,.07,.51-.36,.51h-4.15c-.29,0-.44-.15-.51-.44-.22-1.6-.66-3.2-.95-4.81-.15-.73-.22-1.46-.44-2.18-.07-.22-.15-.29-.36-.29h-1.75c-.22,0-.36,.07-.36,.29-.15,1.38-.22,2.69-.51,4.08-.15,1.02-.22,2.04-.44,3.06-.07,.22-.15,.36-.44,.36h-4.22c-.29,0-.36-.15-.29-.36,.29-1.53,.44-3.06,.66-4.52,.29-1.67,.51-3.42,.73-5.1,.29-1.6,.51-3.13,.73-4.73,.36-2.4,.73-4.73,1.09-7.14,.29-1.82,.58-3.71,.87-5.53,.07-.29,.15-.36,.44-.36,.66-.07,1.53-.07,2.33-.07Zm.07,10.2c0,.07-.07,.07,0,0-.29,1.82-.44,3.57-.73,5.32-.07,.22,.07,.29,.29,.29h.87c.73,0,.66,0,.58-.66-.22-1.53-.66-3.06-.87-4.59,0-.15,.07-.29-.15-.36Z"/><path class="b" d="M31.1,76.83h1.67q.66,0,.66,.66c0,1.53-.07,3.13,.15,4.66,.07,.58,.29,.8,.8,.73,.36-.07,.51-.36,.66-.66,.29-.87,.29-1.75,.22-2.69,0-.36-.07-.73-.15-1.02,0-1.02-.66-1.75-1.31-2.48-1.17-1.24-2.4-2.4-3.5-3.71-.66-.8-1.02-1.67-1.24-2.69-.58-2.26-.44-4.52-.22-6.7,.07-1.09,.36-2.26,1.09-3.13,.95-1.24,2.18-1.82,3.79-1.89,1.82-.07,3.35,.44,4.52,1.82,.44,.51,.73,1.09,.87,1.75,.36,1.75,.36,3.57,.36,5.39,0,.22-.07,.29-.29,.29h-3.93c-.29,0-.36-.15-.29-.36v-2.26c0-.44-.07-.95-.22-1.38-.07-.22-.22-.36-.51-.36s-.51,.07-.58,.36-.22,.58-.29,.87c-.15,1.17-.15,2.33,.29,3.42,.29,.73,.87,1.17,1.46,1.67,1.17,1.09,2.33,2.18,3.2,3.5,.51,.73,.95,1.6,1.09,2.55,.44,2.18,.51,4.44,.36,6.63-.07,1.02-.15,2.11-.58,3.06-.44,.95-1.17,1.67-2.04,2.26-1.17,.73-2.48,.87-3.79,.58-1.67-.29-2.84-1.24-3.64-2.77-.73-1.46-.73-3.06-.87-4.59-.07-1.02,0-1.97-.07-2.99,0-.36,.15-.44,.44-.44,.66-.07,1.24-.07,1.89-.07Z"/><path class="b" d="M38.16,47.41c-.07,1.24,0,2.62-.36,3.93-.29,1.24-1.02,2.18-2.04,2.84-1.82,1.09-3.71,1.17-5.53,.29-1.02-.51-1.82-1.31-2.26-2.48-.66-1.53-.66-3.13-.66-4.73v-2.26c0-.29,.07-.44,.36-.44h3.79c.29,0,.36,.07,.36,.36v3.93c0,.36,0,.8,.22,1.17,.36,.51,.95,.44,1.24-.15,.15-.29,.29-.66,.29-1.02,0-1.09,.07-2.18-.22-3.28-.22-.8-.73-1.31-1.24-1.89-1.02-1.09-2.11-2.04-3.13-3.13-.95-1.02-1.38-2.26-1.6-3.57-.29-1.53-.36-3.06-.22-4.59,.07-1.02,.15-2.04,.51-2.99,.58-1.31,1.46-2.26,2.84-2.69,1.38-.44,2.77-.44,4.08,.07,1.6,.58,2.62,1.67,2.99,3.42,.29,1.53,.22,3.13,.29,4.66,0,.29-.07,.44-.36,.44h-3.79c-.36,0-.44-.07-.36-.44v-2.77c0-.66-.29-1.09-.66-1.17-.36,0-.66,.36-.8,1.02-.15,.95-.07,1.89,.07,2.84,.15,.8,.73,1.31,1.24,1.82,1.24,1.09,2.4,2.18,3.42,3.42,.66,.8,1.02,1.75,1.31,2.69,.22,1.67,.22,3.13,.22,4.66Z"/><path class="b" d="M.15,41.15v-13.4c0-.44,.15-.51,.51-.51H10.12c.44,0,.51,.15,.51,.51v2.91c0,.36-.07,.51-.51,.51H5.68c-.36,0-.51,.07-.51,.51v5.9c0,.36,.07,.51,.51,.51h3.64c.36,0,.51,.07,.51,.51v2.99c0,.36-.15,.44-.44,.44h-3.71c-.36,0-.44,.07-.44,.44v8.01c0,.36,.15,.44,.51,.44h4.37c.36,0,.51,.07,.51,.51v3.35c0,.44-.15,.51-.58,.51H.73c-.44,0-.51-.15-.51-.51-.07-4.66-.07-9.1-.07-13.62Z"/><path class="b" d="M43.33,74.5v-12.16c0-.44-.15-.51-.51-.51h-1.89c-.29,0-.36-.07-.36-.36v-3.06c0-.36,.15-.36,.44-.36h9.83c.36,0,.44,.07,.44,.44v2.91c0,.36-.15,.51-.51,.51h-1.67c-.44,0-.51,.15-.51,.51v24.32c0,.36-.15,.51-.51,.51h-4.22c-.44,0-.58-.07-.51-.51,0-4.15,0-8.16,0-12.23Z"/><path class="b" d="M19.74,72.61v-14.06c0-.44,.07-.51,.51-.51h7.57c.36,0,.51,.07,.51,.44v3.06c0,.29-.07,.36-.36,.36h-3.64c-.36,0-.44,.07-.44,.44v6.41c0,.36,.15,.44,.44,.44h2.91c.29,0,.44,.07,.44,.44v3.35c0,.29-.07,.44-.44,.44h-2.91c-.29,0-.44,.07-.44,.44v8.52c0,.36,.15,.44,.44,.44h3.42c.29,0,.44,.07,.44,.44v3.86c0,.29-.07,.36-.36,.36h-7.57c-.44,0-.36-.22-.36-.51-.15-5.02-.15-9.69-.15-14.35Z"/><path class="b" d="M48.57,42.89v11.65c0,.44-.15,.58-.58,.58h-4.08c-.44,0-.58-.07-.58-.58V31.24c0-.44-.07-.58-.51-.51-.58,.07-1.24,0-1.82,0-.29,0-.44-.07-.44-.36v-2.77c0-.29,.07-.44,.44-.44h9.83c.29,0,.44,.07,.44,.44v2.77c0,.29-.07,.44-.44,.44h-1.82c-.36,0-.51,.15-.51,.51,.07,3.79,.07,7.65,.07,11.58Z"/><path class="b" d="M134.58,71.66v4.95c0,.22,0,.44-.36,.36-1.38-.29-2.55,.22-3.71,.87-.15,.07-.36,.22-.51,.29-.95,.44-.8,1.31-.8,2.11-.07,1.31-.07,2.69-.07,4.01,0,.44-.07,.73-.51,.87l-2.18,.87c-.29,.15-.44,.07-.58-.22-.87-1.6-1.67-3.13-2.62-4.73-.73-1.17-1.31-2.4-1.97-3.57-.22-.44-.51-.87-.8-1.31-.36-.51-.29-.66,.22-1.02,1.17-.73,2.33-1.53,3.42-2.4,.95-.8,1.82-1.67,2.62-2.62,1.02-1.24,1.89-2.55,2.33-4.15,.07-.36,.29-.58,.73-.51,1.46,.29,2.99,.51,4.44,.73,.29,.07,.29,.22,.29,.44,.07,1.75,.07,3.42,.07,5.02Z"/><path class="b" d="M112.59,89.57c-.07-.73-.36-1.38-.36-2.04,0-.29-.22-.36-.44-.44-.66-.22-1.31-.44-1.97-.58-.29-.07-.29-.22-.22-.44,.22-.87,.22-1.75,.36-2.62,.15-1.09,.36-2.11,.51-3.2,0-.15,.07-.29,.29-.36,1.6-.51,3.2-1.17,4.73-1.82,.87-.36,1.67-.8,2.55-1.24,.36-.22,.58-.22,.8,.22,.51,1.02,1.02,1.97,1.53,2.99,.58,1.09,1.17,2.18,1.75,3.28,.58,1.02,1.09,2.04,1.67,3.13,.07,.15,.15,.22,.22,.36,.15,.22,.36,.44,.15,.66s-.44,.58-.87,.44c-1.38-.44-2.77-.51-4.22-.29-1.02,.15-1.89,.58-2.55,1.38-.07,.15-.15,.15-.36,.07-1.17-.44-2.18-.22-3.13,.51-.15-.15-.22-.07-.44,0Z"/><path class="b" d="M9.25,94.53v-3.86c0-.36,.07-.44,.44-.44h1.17c.36-.07,.36,.15,.36,.44v10.41c0,.29-.07,.36-.36,.36h-.8q-.95,0-1.09-.95c-.29-1.17-.44-2.33-.95-3.5v3.93c0,.36-.15,.51-.44,.44h-1.09c-.29,0-.36-.07-.36-.36v-10.56c0-.29,.07-.36,.36-.36h1.24c.29,0,.36,.15,.44,.36,.29,1.17,.51,2.26,.8,3.42,0,.36,.15,.51,.29,.66Z"/><path class="b" d="M29.79,95.69c.87,.44,1.09,1.09,1.02,1.89v3.42c0,.36-.07,.51-.44,.51h-1.24c-.36,0-.44-.07-.44-.44v-3.79c0-.22,0-.36-.07-.58-.07-.15-.22-.29-.44-.29s-.15,.22-.15,.36v3.93q0,.8-.73,.8h-1.09c-.36,0-.51-.15-.51-.51v-9.76q0-1.02,1.02-1.02c.8,0,1.67,0,2.48,.15,.8,.07,1.31,.87,1.46,1.53,.15,.8,.07,1.53,.07,2.33,.07,.66-.22,1.17-.95,1.46Zm-1.75-2.33v.87c0,.15-.07,.29,.15,.36,.22,0,.44,0,.44-.22,.15-.66,.15-1.24,0-1.89-.07-.22-.29-.29-.44-.29-.29,0-.15,.22-.15,.36v.8Z"/><path class="b" d="M17.84,97c0-.29,.07-.58,.07-.87,.15-1.82,.22-3.64,.36-5.46,0-.36,.07-.51,.51-.51,.51,.07,1.02,0,1.53,0,.36,0,.44,.07,.36,.44-.22,2.11-.44,4.3-.66,6.41-.15,1.38-.29,2.69-.44,4.08,0,.29-.07,.36-.36,.36h-2.77c-.29,0-.36-.07-.44-.36-.29-2.04-.51-4.01-.73-6.04-.15-1.46-.36-2.99-.58-4.44-.07-.36,0-.51,.44-.44h1.6c.36,0,.44,.15,.44,.44,.07,1.97,.36,3.93,.44,5.9,0,.15,0,.36,.07,.51h.15Z"/><path class="b" d="M110.91,76.68c.29-1.97,.58-4.08,.95-6.26,.07-.51,.15-1.02,.22-1.6,0-.22,.15-.44,.44-.44,.44,0,.8-.15,1.17-.29,.29-.15,.51-.07,.66,.22,.51,.95,1.02,1.97,1.53,2.91,.51,.95,1.02,1.97,1.6,2.91,.29,.58,.36,.66-.22,.87-.87,.44-1.75,.87-2.62,1.24-1.02,.44-1.97,.8-2.99,1.09q-.8,.22-.73-.66Z"/><path class="b" d="M23.01,101.52h-1.53c-.29,0-.36-.07-.36-.36v-10.63c0-.29,.07-.29,.36-.29h3.2c.22,0,.29,.07,.29,.29v1.67c0,.22-.07,.36-.29,.36h-.07q-1.09,.07-1.09,1.17t.95,.95c.36,0,.51,.07,.44,.44v1.31c0,.36-.15,.44-.44,.44q-.95,0-.95,.95v1.09c0,.29,.07,.44,.36,.36h.95c.29,0,.36,.07,.36,.36v1.6c0,.29-.15,.36-.44,.36-.66-.07-1.17-.07-1.75-.07Z"/><path class="b" d="M48.21,93.94c.15-.87,.29-1.75,.36-2.62,.07-.29,.15-.58,.15-.87,.07-.22,.15-.29,.36-.29h1.53c.29,0,.29,.07,.22,.36-.44,1.6-.8,3.28-1.17,4.88-.22,1.09-.58,2.18-.44,3.28,.07,.8,0,1.6,0,2.4,0,.29-.07,.36-.36,.36h-1.38c-.29,0-.44-.07-.44-.44v-2.91c.07-1.02-.29-1.89-.44-2.84-.15-.66-.29-1.24-.44-1.89-.22-.95-.36-1.97-.66-2.91-.07-.29,0-.36,.29-.36,.44,0,.8,.07,1.24,0,.51-.07,.66,.22,.73,.66,.07,1.17,.29,2.18,.44,3.2Z"/><path class="b" d="M43.91,97.07v4.01c0,.36-.15,.44-.44,.44h-1.46c-.36,0-.44-.15-.44-.44v-8.01c0-.44-.15-.58-.58-.58q-.8,0-.8-.8v-1.17c0-.22,.07-.36,.29-.36h4.3c.29,0,.36,.07,.36,.36v1.6c0,.29-.15,.36-.36,.36q-.87,0-.87,.95v3.64Z"/><path class="b" d="M116.37,66.63c.29,.15,.66,.29,1.02,.44,1.82,.87,3.64,1.67,5.46,2.55,.36,.15,.73,.36,1.17,.51,.22,.07,.36,.22,.15,.36-1.31,1.17-2.55,2.4-4.15,3.13-.07,.07-.15,.07-.22,.15-.22,.15-.44,.15-.58-.15-.51-.87-1.02-1.75-1.53-2.62-.66-1.09-1.24-2.18-1.89-3.28-.29-.44-.29-.58,.15-.8,0-.07,.15-.29,.44-.29Z"/><path class="b" d="M116.88,65.98c.29-.36,.58-.66,.73-1.09,.07-.22,.22-.36,.51-.36,2.84-.07,5.68,.22,8.52,.44,.36,0,.8,.15,1.17,.22,.29,0,.29,.15,.22,.36-.22,.44-.44,.87-.73,1.24-.44,.58-.87,1.09-1.31,1.67-.22,.29-.44,.36-.8,.22-1.6-.58-3.28-1.17-4.88-1.67-.87-.29-1.82-.58-2.69-.8-.29,0-.58-.07-.73-.22Z"/><path class="b" d="M123.29,63.87h-4.88c-.29,0-.51-.07-.51-.44-.07-.8-.07-.73,.73-.95,1.38-.36,2.84-.8,4.22-1.24,.95-.29,1.89-.51,2.84-.8,.66-.22,1.38-.36,2.04-.58,.22-.07,.29,0,.36,.15,.8,1.09,.87,2.26,.66,3.5-.07,.29-.22,.22-.44,.22h-4.95c-.07,.07-.07,.15-.07,.15Z"/><path class="b" d="M104.43,85.06h-2.48c-.36,0-.44-.07-.29-.44,.36-1.17,.66-2.26,1.02-3.42,.15-.44,.29-.8,.36-1.24,.07-.22,.15-.22,.36-.15,1.53,.44,3.06,.36,4.59,.36,.29,0,.44,.07,.36,.36-.29,1.38-.58,2.77-.8,4.15-.07,.29-.22,.29-.44,.29h-2.55c-.15,0-.15,.07-.15,.07Z"/><path class="b" d="M14.42,95.91v5.17c0,.36-.07,.51-.44,.44h-1.38c-.36,0-.51-.07-.51-.51v-10.49c0-.29,.07-.36,.36-.36h1.53c.36,0,.44,.07,.44,.44v5.32Z"/><path class="b" d="M39.76,95.91v5.17c0,.36-.15,.51-.51,.44h-1.46c-.44,0-.44-.15-.44-.51v-9.76q0-1.09,1.02-1.02c.44,0,1.02-.22,1.24,.07s.07,.8,.07,1.24c.07,1.46,.07,2.91,.07,4.37Z"/><path class="b" d="M110.62,68.96c-.36,1.75-.73,3.5-1.09,5.32-.22,1.17-.51,2.4-.73,3.64,0,.15-.07,.22-.22,.29-1.6,.29-3.2,.51-4.81,0-.44-.15-.22-.36-.15-.58,.29-.44,.66-.87,1.02-1.24,1.02-1.31,2.04-2.62,3.13-3.93,.87-1.17,1.82-2.33,2.69-3.5q.07-.07,.15,0Z"/><path class="b" d="M126.28,56.58c.95-.58,1.89-.95,2.77-1.38,1.38-.66,2.77-1.09,4.22-1.6,1.17-.36,1.31-.22,1.31,.87v1.75c0,.22-.07,.36-.29,.44-.36,.15-.73,.29-1.09,.36-1.31,.36-2.55,.87-3.86,1.24-.29,.07-.51,.07-.73-.22-.66-.51-1.46-1.02-2.33-1.46Z"/><path class="b" d="M119.43,56.37c.58-.66,1.24-1.02,1.82-1.38,1.6-1.02,3.42-1.75,5.24-2.26,1.38-.44,2.84-.22,4.22-.22,.58,0,1.17,.07,1.75,.15-.66,.29-1.38,.58-2.04,.87-1.46,.66-2.84,1.24-4.3,1.89-.58,.29-1.09,.51-1.67,.8-.15,.07-.29,.07-.44,.07-1.46-.07-2.99-.07-4.59,.07Z"/><path class="b" d="M134.58,61.39v2.04c0,.22-.07,.36-.36,.36h-4.01c-.22,0-.36-.07-.29-.36v-.22c.15-1.24,.07-2.4-.44-3.57q-.07-.22,.15-.36c.44-.22,.87-.22,1.31-.22,1.09,0,2.11,0,3.2-.07,.29,0,.36,.07,.36,.36,.07,.66,.07,1.31,.07,2.04Z"/><path class="b" d="M154.82,45.15c-.22,.87-.36,1.82-.58,2.69-.15,.51-.22,1.09-.29,1.67-.07,.44-.22,.66-.73,.58-1.09-.22-1.02,0-.8-1.17,.22-1.09,.44-2.18,.73-3.35,0-.15,.07-.22,.07-.36s-.07-.29-.22-.29-.22,.15-.22,.22c-.07,.36-.22,.8-.29,1.17-.22,.87-.36,1.75-.51,2.62,0,.15-.07,.22-.07,.29-.07,.36-.29,.44-.66,.36-1.31-.22-1.09-.07-.87-1.24,.29-1.53,.66-3.06,.95-4.52,.07-.22,.15-.22,.29-.22,.44,.07,.87,.07,1.31,.29,.29,.15,.51,.07,.8,.07,.66,.07,1.17,.44,1.17,.8-.07,.22-.07,.29-.07,.36Z"/><path class="b" d="M147.18,49.08c-.51-.07-1.09,0-1.53-.36-.44-.29-.66-.58-.58-1.09,.15-1.24,.29-2.4,.51-3.64,.07-.58,.44-.87,1.02-.95,.8-.07,1.53-.07,2.26,.36,.36,.22,.58,.58,.51,1.02-.15,1.24-.29,2.48-.51,3.71-.22,.73-.73,.95-1.67,.95Zm-.51-1.38c0,.15-.07,.36,.22,.44,.22,0,.29-.15,.29-.36,.15-1.09,.29-2.18,.51-3.28,0-.22,0-.29-.22-.36s-.29,.07-.36,.29c-.07,1.02-.36,2.11-.44,3.28Z"/><path class="b" d="M124.24,57.6c.58,0,1.02,.29,1.46,.44,.36,.15,.73,.44,1.02,.66,.36,.22,.29,.44-.07,.58-.8,.22-1.6,.51-2.4,.8-1.31,.44-2.62,.87-3.93,1.31-.95,.36-1.97,.66-2.91,1.02-.29,.07-.51-.15-.58-.29-.15-.15,.15-.22,.29-.29,1.17-.73,2.33-1.53,3.57-2.18,1.09-.66,2.26-1.24,3.35-1.89,.15-.15,.22-.15,.22-.15Z"/><path class="b" d="M137.86,45.44v-1.89c0-.22-.07-.36-.29-.36-.29,0-.36-.15-.36-.36,.07-.22-.07-.51,.36-.44,.36,.07,.36-.22,.44-.51q.07-.73,.73-.66h.15c.8,0,.73,.07,.66,.66-.07,.36,.07,.58,.51,.51,.51-.07,.36,.29,.36,.58,0,.44-.22,.36-.51,.29-.36-.07-.44,.07-.44,.36,0,1.02-.07,2.04-.07,3.06,0,.36,.15,.58,.51,.58s.44,.15,.36,.44c-.07,.22,.07,.66-.44,.58-.36-.07-.8,0-1.24-.07-.66-.07-.87-.29-.87-.95v-1.89q.07,.07,.15,.07Z"/><path class="b" d="M99.48,71.15c-.29-.66,.36-.73,.73-.95,1.09-.51,2.18-1.09,3.35-1.6,1.38-.58,2.77-1.09,4.22-1.53,.22-.07,.44-.07,.58-.07,.22-.07,.36,0,.36,.22,0,.07,0,.15,.07,.22,.44,.44,.22,.51-.22,.66-2.04,.8-4.01,1.6-5.97,2.4-.87,.36-1.75,.8-2.62,1.24-.44,.29-.51,.22-.51-.58Z"/><path class="b" d="M115.94,58.26c-.29,.8-.73,1.46-1.02,2.11-.15,.29-.36,.58-.44,.87-.15,.58-.51,.87-1.09,.95-.36,0-.66,.22-.95,.36-.29,.07-.44,.15-.51-.22-.22-.58-.58-1.17-.87-1.82-.07-.15-.15-.29,.07-.44,1.31-.58,2.69-1.09,4.01-1.6,.22-.07,.44-.15,.8-.22Z"/><path class="b" d="M100.35,65.54c-.87,1.09-1.75,2.11-2.48,3.28-.22,.36-.66,.29-1.02,.51-.22,.15-.51,.15-.73,.29-.36,.22-.66-.15-.95-.29s-.51-.29-.15-.73c.87-1.09,1.89-1.97,2.91-2.91,.07-.07,.22-.15,.36-.15h2.04Z"/><path class="b" d="M100.5,68.02c.51-1.02,1.24-1.82,2.04-2.62,.15-.07,.22-.07,.36-.07,1.89-.07,3.71-.07,5.61-.15,.15,0,.44-.07,.36,.22,0,.22,0,.51-.36,.58-.51,.07-1.02,.15-1.53,.29-1.6,.36-3.13,.8-4.73,1.31-.51,.15-1.09,.29-1.75,.44Z"/><path class="b" d="M141.86,47.63c0-1.6,.29-3.2,.36-4.81,0-.22,.07-.29,.29-.29,.44-.07,.8,.07,1.24,.15,.15,0,.15,.15,.15,.22-.15,1.75-.29,3.57-.44,5.32,0,.22-.07,.29-.29,.29h-.36q-1.02,0-.95-.87Z"/><path class="b" d="M122.05,57.39c-.51,.29-1.02,.58-1.53,.95-1.6,.95-3.13,1.97-4.44,3.35-.22,.29-.51,.22-.8,.22-.22,0-.07-.15-.07-.22,.36-.8,.87-1.46,1.31-2.18,.29-.44,.66-.8,.95-1.31,.36-.58,1.02-.51,1.53-.66,.95-.22,1.97-.22,2.91-.22q.15,0,.15,.07Z"/><path class="b" d="M104.94,63.58c.44-.44,.95-.66,1.38-.95,.51-.36,1.09-.58,1.67-.95,.15-.07,.29-.07,.44,.07,.66,.58,1.31,1.09,1.97,1.6,.22,.15,.22,.29,0,.51-.36,.29-.73,.44-1.17,.29-1.31-.29-2.69-.22-4.01-.51-.15-.07-.22-.07-.29-.07Z"/><path class="b" d="M117.61,54.91c-.22,.73-.58,1.31-.87,1.89-.07,.07-.15,.07-.22,.15-.87,.22-1.75,.44-2.62,.73-1.17,.36-2.26,.73-3.35,1.31-.22,.07-.36,0-.36-.15s-.44-.29,0-.51c.66-.29,1.24-.66,1.89-.95,1.17-.51,2.33-1.09,3.57-1.6,.58-.29,1.24-.58,1.97-.87Z"/><path class="b" d="M96.49,72.31c.07,.44-.07,.8,0,1.17,0,.15-.22,.29-.36,.36-1.31,.73-2.55,1.46-3.71,2.33-.15,.07-.22,.07-.36,0-.8-.44-.87-.66-.15-1.17,1.46-.87,2.99-1.82,4.59-2.69Z"/><path class="b" d="M101.01,62.99c.44-.29,.8-.58,1.24-.8,1.02-.66,2.04-1.24,3.06-1.89,.22-.15,.51-.22,.73-.44,.07-.07,.15-.07,.22,0,.29,.22,.51,.44,.8,.73-1.24,.73-2.48,1.38-3.5,2.26-.8,.66-1.67,.36-2.48,.29q-.07-.07-.07-.15Z"/><path class="b" d="M134.29,51.05v-2.26c0-.36-.15-.51-.51-.44-.44,.07-.95,.15-1.38,0,.51,0,1.02-.07,1.53-.07s.51-.15,.51-.51v-5.39h0c.8,.29,.95,.58,.95,1.38,0,1.38,.15,2.69,.22,4.08,0,.36-.07,.44-.44,.44h-.36c-.29,0-.44,.07-.44,.44v1.89c0,.15,0,.29-.07,.44Z"/><path class="b" d="M143.1,42.38h-.22c-.66-.07-.8-.29-.66-.95,.07-.22,.15-.22,.36-.15,.29,0,.58,.07,.87,.07,.36,0,.44,.15,.36,.44,0,.66,.15,.58-.73,.58Z"/><path class="b" d="M132.69,42.38c.36-.22,.73-.07,1.09-.07s.51-.07,.51-.44v-14.13c0-.22-.15-.36-.22-.58,.36,.07,.29,.36,.29,.58v14.71h0c-.58-.07-1.09-.07-1.67-.07Z"/><path class="b" d="M129.12,51.71c.95-.29,1.89-.36,2.91-.36-.95,.15-1.89,.22-2.91,.36Z"/><path class="b" d="M132.83,51.27c.29-.36,.73-.07,1.09-.15-.36,.15-.73,.22-1.09,.15Z"/><path class="b" d="M134.14,51.12c.07,0,.07-.07,.15-.07,0,.07-.07,.07-.15,.07Z"/><path class="b" d="M73.33,78.21c-.07-.07-.07-.15-.15-.15-.36-.22-.66-.44-1.02-.66-.07-.07-.22-.07-.29,.07s-.07,.29,.07,.36c.36,.22,.66,.44,1.02,.66,.22,.15,.22-.15,.36-.29Z"/><path class="b" d="M111.57,48.36c.07-.07,.36,0,.29-.22-.15-.36-.22-.73-.36-1.09-.07-.15-.22-.22-.36-.15-.22,0-.22,.15-.15,.29,.15,.29,.22,.66,.29,1.02,.07,.07,.15,.15,.29,.15Z"/><path class="b" d="M133.85,46.61s-.07,0,0,0v-.51c0-.15,.07-.29-.15-.29-.15,0-.36,.07-.36,.29v1.09c0,.15,.15,.29,.29,.29s.22-.15,.22-.29v-.58Zm-.66-2.55v.36c0,.07-.07,.22,.07,.29,.15,.07,.22-.07,.29-.15,.22-.22,.29-.95,.15-1.24-.15-.22-.36-.15-.44,.07-.15,.29-.07,.51-.07,.66Z"/><path class="b" d="M114.12,49.74s-.07,0,0,0c-.15-.29-.15-.73-.44-.8-.44-.07-.87,.07-1.24,.29-.22,.07-.15,.29-.07,.44,.07,.22,.15,.51,.22,.73,.07,.15,.07,.29-.15,.36s-.36,0-.36-.22c-.15-.36-.22-.73-.36-1.09-.07-.22,.22-.29,.36-.36,.36-.07,.73-.22,1.09-.29,.44-.07,.51-.36,.36-.73-.07-.07-.07-.22-.07-.29,.07,0,.15,.07,.15,.07,0,.73,.58,1.24,.51,1.89Z"/><path class="b" d="M67.36,91.61c-.15,0-.29-.07-.36,.15-.07,.29-.29,.58-.44,.95s0,.44,.29,.51c.22,.07,.51,.15,.73,.29,.15,.07,.22,.15,.15,.36-.07,.22-.22,.15-.36,.15l-1.09-.44c-.29-.07-.15-.29-.07-.44,.22-.44,.36-.87,.58-1.38,.07-.07,.07-.15,0-.29,.22,.07,.44,0,.58,.15Z"/><path class="b" d="M94.96,57.82c-.58,.07-.87,.51-1.31,.8-.15,.07,0,.22,.07,.29,.15,.29,.44,.44,.58,.73,.07,.15,.15,.22,0,.36s-.29,.07-.36-.07c-.22-.29-.51-.66-.73-.95-.15-.22,0-.22,.15-.36,.44-.36,1.02-.66,1.46-1.09,0,.07,.07,.15,.15,.29Z"/><path class="b" d="M75.3,77.48c-.44,.29-.58,.8-.87,1.17-.15,.15,.15,.29,.22,.36l.66,.44c.15,.07,.22,.22,.07,.36-.07,.15-.22,.15-.36,.07s-.22-.15-.36-.22q-.87-.58-.22-1.46c.22-.22,.44-.44,.51-.8,.15,0,.29-.07,.36,.07Z"/><path class="b" d="M82.07,68.89c-.15-.36,.44-.36,.29-.73,.22-.15,.22,.15,.29,.22-.29,0-.36,.36-.58,.51h0Z"/><path class="b" d="M131.74,45.95v1.75c-.15-.58-.15-1.17,0-1.75Z"/><path class="b" d="M114.12,50.76c.07-.22,.07-.51,0-.8,.29,.29,.29,.58,0,.8Z"/><path class="b" d="M113.53,47.85c-.15-.15-.15-.22-.15-.44,.15,.07,.15,.22,.15,.44Z"/><path class="b" d="M131.81,48.06c.07,0,.15,.07,.22,.22-.15,0-.22-.07-.22-.22Z"/><path class="b" d="M132.69,42.38c-.07,0-.22,.07-.29,.07,.15-.07,.22-.07,.29-.07Z"/><path class="b" d="M74.72,77.12c-.07-.07-.15-.07-.22-.15,.07,0,.15,0,.22,.15Z"/><path class="b" d="M67.51,91.76c-.07,0-.15,0-.15-.07,.07,0,.07,.07,.15,.07Z"/><path class="b" d="M74.79,77.19c-.07,0-.07-.07,0,0-.07-.07-.07,0,0,0Z"/><path class="b" d="M82.95,68.53c-.07,0-.07-.07,0,0-.07-.07-.07,0,0,0Z"/><polygon class="b" points="94.67 57.46 94.6 57.46 94.6 57.39 94.67 57.46"/><path class="b" d="M66.63,91.39c-.07,0-.07-.07-.15-.07,.07,0,.15,.07,.15,.07Z"/><path class="b" d="M66.78,91.47q-.07,0-.07-.07s0,.07,.07,.07Z"/><path class="b" d="M74.86,77.27c-.07,0-.07-.07-.15-.07,.07,0,.15,.07,.15,.07Z"/><path class="b" d="M5.46,76.47h0s0-.07,0,0q0-.07,0,0c.07-.07,0-.07,0,0Z"/><path class="b" d="M117.83,49.16c0,.15,0,.22-.15,.29-.15,0-.22,0-.29-.07-.07-.07-.15-.22-.15-.29-.22-1.02-.51-2.04-.73-3.06-.07-.22-.15-.51,.15-.58s.36,.22,.36,.44c.15,.73,.36,1.46,.51,2.26,.07,.29,.22,.66,.29,1.02Z"/><path class="b" d="M65.1,93.07c-.36-.15-.8-.36-1.24-.51-.07-.07-.07-.15-.07-.29,.07-.15,.15-.15,.22-.15,.44,.07,.8,.22,1.24,.44,.15,.07,.07,.22,.07,.29-.07,.15-.07,.22-.22,.22Z"/><path class="b" d="M92.85,57.82c0,.15-.07,.15-.15,.22-.15,.07-.22,.07-.29-.07-.22-.29-.44-.58-.73-.87-.07-.15-.15-.22,0-.29s.29-.15,.36,0c.29,.36,.51,.66,.8,1.02q-.07-.07,0,0Z"/><path class="b" d="M73.33,78.21c-.07,.15-.15,.36-.36,.29-.36-.22-.73-.44-1.02-.66-.15-.07-.15-.22-.07-.36,.07-.07,.22-.15,.29-.07,.36,.22,.73,.44,1.02,.66l.15,.15Z"/><path class="b" d="M82.07,68.82q-.51,.66,.15,1.17c.07,.07,.22,.15,.29,.22,.15,.15,.15,.22,0,.36s-.22,.07-.36,0c-.15-.15-.36-.29-.51-.44s-.58-.29-.44-.51c.15-.29,.44-.58,.87-.8-.07,0,0,0,0,0h0Z"/><path class="b" d="M79.52,67.8l.15,.15c.29,.22,.58,.51,.8,.73,.15,.15,.15,.22,0,.36s-.22,.15-.36,0l-.87-.66c-.15-.07-.15-.22-.07-.36,.15-.15,.22-.22,.36-.22Z"/><path class="b" d="M111.57,48.36c-.15,0-.22-.07-.29-.15-.07-.36-.15-.66-.29-1.02-.07-.15,0-.29,.15-.29s.29,0,.36,.15c.15,.36,.15,.73,.36,1.09,.07,.15-.22,.15-.29,.22Z"/><path class="b" d="M133.85,46.61v.51c0,.15-.07,.29-.22,.29s-.29-.07-.29-.29c0-.36-.07-.73,0-1.09,0-.22,.22-.29,.36-.29,.22,0,.15,.15,.15,.29,0,.22-.07,.44,0,.58-.07,0,0,0,0,0Z"/><path class="b" d="M133.2,44.06c0-.15-.07-.44,.07-.58,.07-.22,.29-.29,.44-.07,.22,.22,.15,1.02-.15,1.24-.07,.07-.15,.22-.29,.15s-.07-.22-.07-.29v-.44Z"/></g><rect class="b" x="187.96" width="2.28" height="102.61"/><g><g><path class="c" d="M298.35,54.26s-.1,.09-.15,.14c-.06,.05-.1,.13-.12,.24-.02,.18-.15,.37-.38,.55-.05,.07-.14,.17-.27,.31-.02,.07-.06,.15-.1,.24v.03l-.07,.24,.03,.03-.03,.03c-.07,.05-.14,.1-.21,.17s-.14,.13-.21,.17c-.14,.11-.27,.22-.41,.33s-.27,.21-.41,.33c-.05,.05-.09,.08-.12,.1s-.07,.06-.12,.1c-.07,.05-.13,.1-.19,.15-.06,.06-.12,.11-.19,.15-.18,.11-.38,.23-.6,.34-.22,.11-.42,.23-.6,.34-.12,.09-.24,.17-.38,.24s-.26,.14-.38,.21c-.05,.05-.08,.07-.1,.09-.02,.01-.06,.04-.1,.09l-.14,.07c-.09,.07-.19,.14-.29,.21s-.2,.14-.29,.21c-.25,.14-.49,.27-.7,.41s-.44,.3-.67,.48c-.07,.07-.15,.13-.24,.19s-.19,.12-.31,.19c-.18,.11-.35,.22-.5,.33s-.3,.23-.46,.39c-.21,.18-.53,.33-.96,.45-.11,.05-.21,.08-.29,.1s-.17,.06-.26,.1h-.07s-.11,.05-.19,.09-.13,.1-.15,.19c-.07,.14-.17,.24-.31,.31s-.31,.13-.51,.17c-.05,.02-.1,.04-.15,.05s-.11,.03-.15,.05c-.02,.02-.06,.03-.1,.03-.05,.02-.1,.05-.17,.07s-.14,.06-.21,.1c-.37,.3-.77,.39-1.2,.27-.07-.05-.17-.07-.29-.07s-.25,.05-.36,.14-.23,.14-.36,.15-.28,.02-.46,.02h-.36c-.13,0-.26,.02-.39,.07-.25,.09-.6,.11-1.03,.07h-.58c-.18-.07-.36-.13-.53-.19s-.35-.11-.53-.15c-.41-.11-.82-.24-1.24-.38-.37-.14-.74-.29-1.12-.45s-.73-.37-1.05-.62c-.11-.05-.21-.11-.29-.19l-.29-.29-.12-.12-.12-.12-.03-.03s-.05-.06-.09-.1-.09-.08-.15-.1c-.21-.07-.38-.17-.51-.31s-.27-.3-.41-.48c-.14-.21-.33-.4-.58-.58,0-.02-.01-.03-.03-.03-.02-.23-.09-.41-.21-.55s-.24-.26-.38-.38l-.03-.03s-.09-.11-.12-.19-.06-.17-.09-.26c-.05-.07-.08-.14-.1-.21s-.06-.14-.1-.21c-.18-.34-.33-.7-.45-1.08s-.19-.83-.24-1.36c-.02-.09-.03-.18-.03-.27s-.01-.18-.03-.27c-.05-.32-.09-.64-.12-.96-.03-.32-.04-.64-.02-.96l.03-.03c.05-.34,.09-.69,.12-1.03s.09-.68,.15-1c.11-.55,.24-1.1,.38-1.66s.3-1.13,.48-1.7c.07-.25,.16-.49,.27-.7s.24-.45,.38-.7l.21-.41c.07-.14,.13-.27,.17-.41,.05-.11,.08-.22,.1-.31s.05-.19,.07-.31c.02-.05,.03-.09,.03-.12s.01-.07,.03-.12c0-.02,0-.04,.02-.05s.02-.03,.02-.05c.16-.27,.32-.56,.48-.86,.21-.32,.42-.65,.64-1,.22-.34,.44-.67,.67-1,.53-.76,1.08-1.53,1.66-2.32s1.21-1.61,1.87-2.45c.18-.25,.38-.49,.6-.7,.22-.22,.45-.44,.7-.67,.02-.05,.05-.09,.09-.12s.07-.07,.12-.12c.23-.21,.45-.41,.65-.62s.42-.41,.65-.62c.34-.32,.69-.65,1.03-.98s.69-.67,1.03-1.01c.23-.25,.47-.48,.72-.69s.5-.4,.76-.58l.82-.72c.3-.23,.59-.45,.88-.67s.57-.44,.84-.67c.09-.07,.18-.13,.26-.19,.08-.06,.17-.12,.26-.19,.05-.04,.11-.11,.21-.21,.09-.09,.14-.22,.14-.38v-.1c.11,.05,.22,.08,.31,.1,.09,.02,.19,.03,.31,.03,.39,.02,.81,.18,1.27,.48,.14,.12,.27,.23,.41,.34,.14,.12,.27,.23,.41,.34,.14,.12,.27,.24,.41,.36s.27,.25,.41,.36c.09,.23,.21,.43,.36,.6,.15,.17,.29,.34,.43,.5,.11,.11,.22,.23,.31,.34,.09,.11,.17,.23,.24,.34,.02,.02,.03,.05,.03,.07s.01,.05,.03,.07c.14,.25,.25,.48,.34,.69,.09,.21,.16,.42,.21,.65-.02,.11-.02,.22,.02,.33s.07,.2,.12,.29c.05,.07,.08,.13,.1,.19,.02,.06,.05,.11,.07,.15v.6c0,.19-.01,.41-.03,.64,.02,.07,.03,.14,.02,.21-.01,.07-.02,.15-.02,.24-.05,.09-.05,.17-.02,.22s.06,.11,.09,.15c.09,.11,.09,.26,0,.45-.02,.07-.05,.13-.07,.19-.02,.06-.03,.13-.03,.22v.03c-.02,.07-.04,.14-.05,.22-.01,.08,0,.18,.05,.29,.02,.02,.03,.06,.03,.1-.16,.07-.27,.17-.33,.29-.06,.13-.11,.25-.15,.36-.02,.02-.03,.04-.03,.05s-.01,.03-.03,.05c-.05,.14-.1,.28-.17,.43-.07,.15-.13,.3-.17,.46-.12,.25-.21,.49-.29,.72-.08,.23-.18,.46-.29,.69-.05,.09-.1,.17-.15,.24-.06,.07-.11,.14-.15,.21-.05,.02-.08,.05-.09,.07-.01,.02-.04,.05-.09,.07-.44-.07-.78,.16-1.03,.69,0,.02-.03,.07-.09,.14s-.18,.1-.36,.1c-.02,0-.05-.01-.09-.03-.03-.02-.07-.04-.12-.07,.18-.71,.36-1.39,.53-2.06,.17-.66,.3-1.36,.4-2.09,.04-.39,.07-.83,.09-1.32,.01-.49,.02-.93,.02-1.32,.02-.16,.03-.31,.03-.46s.01-.3,.03-.46c0-.23-.02-.4-.07-.51-.05-.07-.08-.13-.1-.19-.02-.06-.05-.12-.07-.19-.02-.02-.09-.05-.19-.07-.1-.02-.17-.05-.19-.07l-.17-.31-.27,.14s-.08,.01-.1,.03c-.14,.05-.24,.09-.31,.14l-.21,.14-.21,.14c-.46,.27-.86,.55-1.2,.82-.39,.32-.8,.65-1.22,1s-.86,.71-1.32,1.1c-.62,.55-1.24,1.13-1.85,1.75-.16,.16-.27,.33-.34,.51-.14,.14-.22,.25-.24,.34-.05,.05-.1,.09-.15,.12s-.12,.07-.19,.12c-.05,.05-.1,.09-.17,.14-.07,.05-.14,.1-.21,.17-.18,.21-.36,.41-.53,.62s-.35,.41-.53,.62c-.32,.34-.62,.69-.91,1.05-.29,.36-.58,.72-.88,1.08l-.07,.07s-.09,.11-.14,.21l-.03,.07c-.07,.05-.1,.1-.1,.17-.05,.05-.09,.09-.12,.14s-.08,.09-.12,.14l.03,.03s-.09,.13-.14,.24c-.05,.11-.03,.23,.03,.34l-.03,.03v.03s-.08,.08-.1,.1c-.02,.02-.06,.06-.1,.1-.09,.14-.17,.21-.24,.21-.18-.02-.32,.04-.39,.19-.08,.15-.14,.25-.19,.29-.05,.11-.08,.22-.09,.31-.01,.09-.04,.18-.09,.27-.02,.07-.05,.14-.07,.21-.02,.07-.05,.15-.07,.24v.03s-.03,.01-.03,.03-.01,.03-.03,.03c-.18,.09-.32,.19-.41,.31s-.17,.23-.24,.34c-.07,.14-.14,.24-.21,.31-.05,.05-.1,.11-.15,.19s-.06,.19-.02,.33c0,.11-.06,.24-.17,.38l-.14,.27c-.05,.09-.07,.19-.07,.31-.02,0-.04,.01-.05,.03s-.04,.05-.09,.07c-.05,.05-.07,.1-.09,.15s-.04,.11-.09,.15c-.05,.11-.08,.21-.1,.29s-.05,.17-.07,.26c-.05,.09-.09,.23-.14,.41-.05,.11-.1,.22-.15,.33s-.11,.2-.15,.29c-.05,.05-.08,.09-.1,.14l-.07,.14c-.14,.21-.26,.42-.38,.64s-.18,.49-.21,.81c0,.21-.06,.46-.17,.76-.05,.12-.08,.22-.1,.33s-.05,.21-.07,.33c-.23,1.08-.41,2.11-.55,3.09,0,.18,.06,.42,.17,.72s.18,.54,.21,.72c.05,.11,.07,.21,.07,.29v.26c.05,.46,.3,.74,.76,.86,.6,.14,1.2,.26,1.82,.36,.62,.1,1.24,.06,1.85-.12,.14-.05,.28-.08,.43-.1,.15-.02,.28-.06,.39-.1,.21-.05,.41-.09,.6-.12,.19-.03,.38-.09,.57-.15,.11-.05,.24-.08,.38-.1s.27-.06,.41-.1c.37-.11,.74-.23,1.13-.36s.74-.3,1.06-.53c.11-.07,.23-.13,.36-.17s.27-.09,.43-.14c.09-.05,.18-.09,.27-.12s.18-.07,.27-.12l.17-.07c.43-.18,.86-.38,1.29-.58s.84-.41,1.25-.62c.55-.27,1.06-.55,1.54-.83s.94-.54,1.37-.79c.09-.04,.18-.1,.26-.15,.08-.06,.14-.11,.19-.15,.16,.25,.27,.38,.33,.38s.15-.06,.29-.17c.04-.04,.09-.07,.14-.09,.04-.01,.09-.04,.14-.09,.09-.04,.18-.08,.27-.1,.09-.02,.17-.06,.24-.1,.18-.18,.38-.33,.58-.45,.21-.11,.42-.23,.65-.34,.34-.14,.66-.3,.96-.5,.3-.19,.58-.41,.86-.64,.02-.05,.03-.12,.03-.24,.3,.21,.6,.19,.89-.03,.14-.09,.22-.15,.24-.17-.07,0-.08,.02-.03,.07-.18,.18-.38,.34-.6,.46-.22,.13-.43,.25-.64,.36-.07,.05-.13,.08-.19,.1-.06,.02-.12,.06-.19,.1-.21,.12-.41,.25-.6,.39-.19,.15-.39,.29-.6,.43-.07,.07-.14,.13-.22,.19-.08,.06-.15,.12-.22,.19-.02,0-.06,.02-.1,.07-.25,.07-.48,.17-.67,.29-.2,.13-.38,.26-.57,.39-.27,.21-.55,.38-.82,.51-.14,.05-.24,.09-.31,.14-.34,.14-.7,.31-1.06,.52-.21,.09-.4,.22-.58,.38-.09,.05-.17,.09-.24,.14l-.21,.14c-.14,.09-.32,.17-.55,.24-.02,.05-.1,.09-.24,.14l-.24,.14,.27,.72,.27-.03h.14c.18,0,.32-.01,.41-.03,.16-.05,.31-.09,.45-.14l.41-.14c.09-.05,.2-.1,.33-.17s.19-.18,.19-.34h.07s.05-.03,.07-.03,.05-.01,.07-.03c.39-.14,.74-.3,1.07-.48,.04-.05,.1-.07,.15-.09,.06-.01,.11-.04,.15-.09,.09-.05,.19-.1,.31-.15,.11-.06,.23-.12,.34-.19,.14-.09,.27-.18,.39-.26,.12-.08,.27-.16,.43-.26,.25-.14,.49-.27,.7-.41,.22-.14,.45-.27,.7-.41,.05-.04,.1-.07,.15-.09,.06-.01,.11-.04,.15-.09,.02,0,.04,0,.05-.02,.01-.01,.03-.02,.05-.02-.09,.05-.17,.1-.24,.15-.07,.06-.14,.11-.21,.15,.02,.02,.03,.06,.03,.1,.05,0,.09,.01,.14,.03,.05,.02,.08,.02,.1,0,.18-.11,.36-.22,.53-.33s.35-.21,.53-.33c.11-.07,.21-.14,.27-.21s.16-.12,.27-.17c.18-.09,.26-.26,.24-.51,.07-.02,.14-.05,.22-.07,.08-.02,.15-.06,.22-.1,.05-.05,.1-.09,.17-.14,.07-.05,.15-.09,.24-.14l-.07,.07c.21-.02,.41-.1,.6-.22,.19-.12,.31-.28,.36-.46,.09-.05,.15-.08,.17-.1l.07,.07c.21,0,.35-.04,.45-.12,.09-.08,.13-.12,.1-.14-.02-.01-.11,.06-.26,.21-.15,.15-.37,.46-.67,.94-.21,.23-.49,.43-.86,.62-.07,.05-.14,.09-.22,.14-.08,.05-.17,.1-.26,.17h-.03Zm-25.89-.34c.21-.09,.33-.25,.36-.48,.03-.23-.04-.43-.22-.62-.02,.18-.04,.36-.05,.53s-.04,.36-.09,.57Zm.45-1.54s.09-.09,.12-.14c.03-.05,.1-.12,.19-.24l-.34-.14s-.07,.1-.09,.17-.04,.13-.09,.17c0,.07,.07,.13,.21,.17Zm2.06-5.84c-.25,.11-.4,.23-.45,.34s-.01,.27,.1,.48c.21-.18,.33-.32,.36-.41s.03-.23-.02-.41Zm.48-1.3c-.07,.14-.13,.29-.17,.45l-.14,.48s.02,.06,.07,.1c.25-.41,.49-.82,.72-1.22s.47-.81,.72-1.22c-.02-.02-.05-.04-.07-.05s-.05-.03-.07-.05c-.16,.05-.27,.14-.34,.27s-.13,.29-.17,.45c-.07,.16-.16,.3-.27,.41s-.21,.24-.27,.38Zm1.17-1.79s.01,.05,.03,.09,.05,.07,.07,.12c.05-.02,.09-.03,.14-.03s.08-.02,.1-.07c.11-.18,.21-.37,.27-.55,.05-.05,.07-.1,.07-.17s.01-.13,.03-.17c-.02-.02-.05-.04-.07-.05s-.05-.03-.07-.05c-.11,.16-.22,.31-.31,.45s-.18,.29-.27,.45Zm1.3-1.55c-.34,.12-.54,.2-.58,.26-.05,.06,.01,.21,.17,.46,.14-.28,.27-.52,.41-.72Zm15.93,11.67c-.09,.12-.18,.22-.27,.31-.09,.09-.2,.17-.31,.24-.12,.05-.23,.09-.34,.14-.12,.05-.23,.09-.34,.14,.04-.04,.1-.09,.15-.12,.06-.03,.11-.07,.15-.12,.11-.09,.23-.18,.36-.26,.12-.08,.24-.15,.36-.22,.18-.11,.36-.23,.53-.34,.17-.11,.35-.23,.53-.34,.11-.07,.23-.14,.36-.22,.12-.08,.26-.15,.39-.22,.14-.09,.22-.16,.24-.21,.09-.09,.19-.16,.31-.21,.11-.05,.27-.15,.48-.31l.14,.17c-.12,0-.19,.01-.24,.03-.14,.07-.28,.14-.43,.22-.15,.08-.29,.18-.43,.29-.18,.16-.37,.32-.57,.48-.19,.16-.39,.32-.6,.48-.14-.16-.3-.14-.48,.07Zm4.63-1.99c-.07,.05-.13,.09-.17,.12s-.1,.07-.17,.12c.09-.09,.21-.17,.34-.24Z"/><path class="c" d="M311.94,61.16c.05,.25,.14,.46,.29,.62s.29,.29,.43,.39,.24,.18,.31,.24,.03,.12-.1,.19c-.11,0-.22,.03-.31,.1-.21,.14-.41,.17-.6,.1s-.38-.14-.57-.21c-.18-.05-.32-.13-.41-.24s-.17-.23-.24-.34c-.11-.16-.25-.3-.39-.41s-.27-.25-.36-.41c-.3-.57-.55-1.2-.76-1.89-.25-.78-.31-1.54-.17-2.3s.33-1.5,.58-2.23c.25-.8,.53-1.58,.82-2.35,.3-.77,.62-1.52,.96-2.25,.18-.37,.37-.73,.55-1.08s.37-.72,.55-1.08c0-.02,0-.04,.02-.05s.02-.04,.02-.09h-.14l-.67,.67c-.22,.22-.43,.44-.64,.67-.18,.18-.34,.37-.48,.55s-.3,.37-.48,.55c-.21,.23-.42,.45-.64,.67s-.43,.44-.64,.67c-.18,.21-.36,.41-.53,.6-.17,.19-.35,.39-.53,.6-.07,.12-.14,.22-.21,.31-.07,.09-.15,.18-.24,.27-.05,.05-.1,.07-.17,.07h-.14c-.05,.12-.07,.21-.09,.29-.01,.08-.04,.14-.09,.19-.25,.32-.51,.64-.77,.96-.26,.32-.53,.64-.81,.96l-.03,.03c-.05,.3-.15,.55-.33,.76s-.34,.41-.5,.62c-.18,.25-.37,.48-.57,.69-.2,.21-.38,.42-.57,.65-.16,.18-.3,.38-.43,.6s-.28,.41-.46,.57c-.18,.11-.3,.27-.36,.46s-.19,.33-.39,.39c-.05,0-.09,.02-.12,.05s-.04,.07-.02,.12c.05,.16,.02,.27-.07,.34s-.19,.16-.31,.27c-.3,.25-.57,.58-.82,1-.21,.27-.47,.42-.79,.45s-.61-.09-.86-.34c-.16-.14-.29-.28-.39-.43s-.17-.34-.19-.57c0-.02-.02-.06-.07-.1-.25-.11-.45-.29-.58-.53s-.26-.49-.38-.74c-.05-.11-.09-.23-.14-.36s-.08-.25-.1-.36c-.23-1.12-.18-2.25,.14-3.4,.14-.55,.29-1.09,.46-1.61,.17-.53,.35-1.05,.53-1.58,.02-.07,.05-.12,.09-.17,.03-.05,.06-.09,.09-.14,.05-.11,.08-.22,.1-.31,.02-.09,.06-.19,.1-.31,.07-.18,.15-.37,.24-.57s.18-.38,.27-.57l.21-.48,.21-.48c.14-.25,.27-.5,.39-.74s.26-.49,.39-.74c.25-.43,.49-.86,.72-1.28s.47-.84,.72-1.27c.48-.79,1.01-1.58,1.58-2.36,.32-.46,.65-.92,1-1.37,.34-.46,.71-.91,1.1-1.37,.25-.3,.52-.58,.81-.84,.29-.26,.57-.52,.84-.77,.66,.12,1.25,.36,1.75,.72,.5,.37,1,.74,1.48,1.13l.76,.62c.25,.21,.5,.42,.76,.65,.11,.07,.21,.14,.27,.22,.07,.08,.15,.17,.24,.26,.27,.25,.55,.5,.84,.76s.57,.5,.84,.76c.05,.05,.1,.09,.17,.14s.15,.09,.24,.14c-.09,.02-.18,.06-.27,.1v.1c.11,.07,.19,.08,.24,.03,.16-.09,.31-.18,.45-.26s.29-.17,.45-.26c.09-.09,.17-.11,.24-.07,.14,.05,.3,.07,.48,.09s.3,.14,.34,.39c.02,.05,.08,.08,.17,.1,.09,.02,.17,.06,.24,.1,.07,.05,.13,.08,.19,.1,.06,.02,.12,.06,.19,.1,.05,.02,.09,.03,.12,.02,.03-.01,.07,0,.12,.05,.16,.18,.32,.35,.48,.51,.16,.16,.31,.33,.45,.51,.11,.18,.14,.42,.09,.71-.06,.29-.18,.5-.36,.61-.07,.07-.1,.11-.1,.14-.05,.07-.08,.14-.09,.2-.01,.07-.04,.12-.09,.17-.32,.34-.57,.72-.76,1.13-.05,.11-.13,.23-.24,.34s-.22,.23-.31,.34l-.34,.55c-.11,.18-.22,.37-.31,.55-.18,.34-.36,.69-.53,1.05-.17,.36-.39,.68-.67,.98-.11,.12-.21,.25-.27,.39-.07,.15-.14,.3-.21,.46-.16,.3-.29,.58-.38,.86-.05,.16-.09,.32-.12,.46-.03,.15-.09,.29-.15,.43-.05,.12-.1,.22-.17,.33s-.08,.22-.03,.36l-.03,.07c-.25,.11-.37,.28-.34,.5s0,.42-.07,.6c-.05,.11-.11,.23-.19,.36s-.14,.26-.19,.39c-.07,.34-.13,.68-.19,1.01s-.1,.67-.12,1.01c0,.18,0,.36,.02,.53s.03,.33,.05,.46Zm-14.25-3.78c-.16-.07-.25-.14-.27-.22s-.02-.17,.02-.26,.07-.18,.12-.27,.06-.18,.03-.27c-.39,.27-.49,.58-.31,.93,.02,.05,.07,.08,.14,.1s.13,.06,.17,.1l.1-.1Zm.21-1.85c.07-.14,.13-.28,.19-.43,.06-.15,.12-.3,.19-.46-.07,.05-.14,.09-.21,.12s-.13,.08-.17,.12c-.16,.27-.29,.54-.38,.79-.05,.07-.06,.15-.05,.24,.01,.09,.02,.17,.02,.24,.02,.02,.07,.03,.14,.03,.05-.11,.09-.22,.14-.33s.09-.21,.14-.33Zm.69-1.58c.05-.09,.03-.17-.03-.24-.05-.07-.11-.1-.21-.1-.11,.07-.17,.15-.17,.24-.02,.07,.01,.15,.1,.24-.09,.07-.21,.15-.34,.24,.05,.07,.1,.12,.17,.15s.13,.08,.17,.12c.05-.11,.1-.22,.15-.33s.11-.21,.15-.33Zm.1-.45s.07-.09,.07-.14,.02-.09,.07-.14c.05-.07,.08-.14,.1-.22,.02-.08,.06-.15,.1-.22,.11-.18,.23-.35,.34-.5,.11-.15,.22-.31,.31-.5,.11-.32,.23-.64,.34-.94s.26-.61,.45-.91c.05-.05,.06-.1,.05-.15s0-.11,.05-.15c.18-.32,.37-.61,.55-.86,.05-.09,.09-.18,.12-.26s.07-.17,.12-.26c-.05-.05-.07-.08-.07-.1-.05,.05-.09,.07-.14,.09s-.09,.04-.14,.09c-.16,.23-.31,.45-.45,.67s-.29,.45-.45,.7c-.02,.05-.03,.09-.03,.12s-.01,.06-.03,.09c-.25,.16-.41,.35-.46,.58s-.11,.46-.15,.69c-.02,.05-.03,.08-.03,.1s-.01,.05-.03,.07c-.11,.11-.22,.23-.31,.36s-.11,.28-.07,.46c.07,.07,.06,.1-.03,.1-.21,.07-.31,.19-.31,.38s-.06,.33-.17,.45c-.05,.02-.06,.07-.03,.15,.02,.08,.06,.15,.1,.22,0,.02,.02,.04,.07,.05,.05,.01,.07,0,.07-.02Zm.27,2.2s.06,.03,.1,.03c.05-.11,.09-.22,.12-.31,.03-.09,.07-.19,.12-.31-.02,0-.05,0-.07-.02-.02-.01-.06-.02-.1-.02-.05,.12-.07,.22-.09,.31-.01,.09-.04,.2-.09,.31Zm12.33-7.83c.48-.46,.96-.93,1.44-1.41s.96-.95,1.44-1.41c-.05-.05-.07-.08-.07-.1-.32,.25-.63,.5-.93,.76s-.61,.5-.93,.76l-.34,.34c-.11,.11-.26,.17-.45,.17,.37-.32,.73-.64,1.08-.94s.73-.62,1.12-.94c-.11-.05-.21-.08-.28-.1s-.14-.06-.21-.1c-.11-.05-.22-.1-.33-.15s-.21-.11-.33-.15c-.09-.05-.18-.1-.26-.17s-.18-.13-.29-.17c-.07-.05-.14-.08-.22-.1s-.16-.06-.22-.1c-.28-.18-.54-.38-.81-.6-.26-.22-.53-.42-.81-.6-.14-.09-.25-.11-.34-.07-.28,.14-.52,.31-.72,.51-.32,.32-.63,.65-.93,1-.3,.34-.61,.69-.93,1.03-.09,.09-.18,.17-.28,.24s-.18,.16-.27,.27c-.11,.16-.25,.29-.41,.39s-.29,.26-.38,.46c-.07,.18-.17,.35-.31,.51s-.26,.33-.38,.51l-.07,.03c-.11,.18-.22,.35-.33,.5-.1,.15-.21,.3-.33,.46-.05,.07-.08,.14-.1,.21s-.06,.14-.1,.21c-.21,.34-.42,.68-.65,1.01s-.44,.68-.62,1.05c-.23,.39-.43,.78-.6,1.17-.17,.39-.35,.79-.53,1.2-.23,.5-.45,1-.65,1.49-.21,.49-.42,.99-.65,1.49l-.14,.41c-.05,.14-.16,.22-.34,.24,0,.07,.01,.13,.03,.19s.01,.11-.03,.15c-.15,.18-.23,.38-.27,.58s-.06,.42-.08,.65c-.02,.05-.03,.1-.03,.15s-.01,.11-.03,.15c-.09,.25-.14,.51-.15,.79s0,.54,.05,.79c0,.05,.03,.16,.1,.34,1.58-2.27,3.26-4.41,5.03-6.44,1.77-2.03,3.59-4.01,5.48-5.96-.11,.18-.23,.34-.36,.48s-.25,.29-.36,.45c-.21,.23-.41,.45-.6,.65s-.38,.42-.57,.65c-.14,.14-.24,.25-.31,.34-.05,.05-.09,.1-.14,.17-.05,.07-.09,.14-.14,.21-.02,.02-.06,.05-.1,.07-.05,.02-.07,.05-.07,.07,.05,.16,.03,.25-.03,.27-.07,.02-.16,.05-.27,.07-.09,.05-.16,.09-.21,.14-.14,.16-.27,.31-.39,.46-.13,.15-.26,.31-.39,.5-.02,.05-.03,.09-.03,.14v.14c-.07,.05-.14,.09-.21,.14-.07,.05-.14,.09-.21,.14-.02,.02-.04,.06-.05,.1-.01,.05,0,.08,.02,.1,.02,.02,.05,.05,.09,.07,.03,.02,.06,.02,.09,0,.14,0,.24-.06,.31-.17,.14-.14,.27-.28,.39-.43,.12-.15,.26-.3,.39-.46,.05-.07,.1-.14,.17-.21s.11-.14,.14-.21c.02-.21,.12-.29,.31-.24,.11,0,.21-.08,.27-.24,.11-.27,.25-.49,.41-.65l.55-.55,.55-.55c.07-.07,.12-.15,.15-.24s.07-.18,.12-.27c.05-.05,.1-.08,.17-.1s.13-.06,.17-.1c.09-.07,.17-.15,.24-.24l.21-.27c.07-.09,.14-.18,.22-.26s.14-.17,.19-.26c.07-.11,.18-.21,.33-.29s.29-.1,.43-.05c.23,.14,.42,.07,.58-.21-.11,0-.22,0-.33,.02s-.21,.03-.33,.05c0-.02,0-.05-.02-.07s-.02-.05-.02-.07Zm-10.61,4.5s.02-.06,0-.1c-.02-.05-.05-.09-.07-.14-.02,.02-.05,.04-.09,.05-.03,.01-.06,.03-.09,.05-.11,.14-.19,.26-.24,.38,0,.02,0,.04,.02,.05,.01,.01,.02,.03,.02,.05,.16-.09,.31-.21,.45-.34Zm.27-2.54c.21-.14,.31-.22,.33-.26s-.05-.1-.19-.19l-.07,.21c-.02,.07-.05,.15-.07,.24Zm3.71,5.05c.23-.11,.4-.19,.51-.24-.12-.11-.2-.16-.26-.14-.06,.02-.14,.15-.26,.38Zm.51-.41c.09-.14,.16-.24,.21-.31,0-.04-.02-.08-.05-.1-.03-.02-.06-.04-.09-.07-.09,.09-.15,.16-.17,.21-.02,.02,.01,.12,.1,.27Zm4.87-4.5s-.03-.05-.03-.07,0-.05-.02-.07-.02-.05-.02-.07c-.07,.05-.14,.09-.21,.12s-.14,.07-.21,.12c.05,.09,.07,.15,.07,.17l.41-.21Z"/><path class="c" d="M326.54,50.18s.16,.03,.34,.1c-.16,.18-.32,.37-.46,.57-.15,.19-.29,.38-.43,.57-.05,.07-.06,.14-.05,.22,.01,.08,0,.15-.05,.22-.14,.25-.27,.49-.39,.72-.13,.23-.27,.47-.43,.72-.05,.12-.11,.22-.19,.31-.08,.09-.15,.19-.22,.31-.11,.16-.21,.32-.29,.46-.08,.15-.17,.3-.26,.46-.32,.53-.64,1.05-.96,1.58l-.96,1.58c-.16,.32-.33,.57-.51,.76s-.43,.35-.76,.51c-.05,.02-.1,.02-.15,0s-.11-.05-.15-.07c-.09-.02-.17-.05-.24-.07s-.15-.06-.24-.1c-.18-.07-.31-.18-.38-.34s-.13-.33-.17-.51c-.07-.16-.17-.31-.31-.45-.07-.07-.1-.18-.1-.33v-.43c-.07-.05-.13-.13-.17-.26s-.16-.14-.34-.05l-.07-.07s-.06-.08-.1-.17-.08-.18-.1-.27-.06-.18-.1-.28c-.02-.07-.05-.14-.09-.22-.03-.08-.04-.14-.02-.19,.14-.39,.27-.76,.41-1.12,.14-.35,.26-.73,.38-1.12,.11-.39,.23-.76,.34-1.12,.11-.35,.23-.73,.34-1.12s.22-.77,.31-1.13,.18-.74,.27-1.13c.14-.73,.27-1.47,.41-2.21s.26-1.48,.38-2.21c.14-.94,.18-1.93,.14-2.99,0-.39-.05-.76-.15-1.12-.1-.35-.33-.66-.67-.91-.23-.18-.27-.42-.14-.72,.18,0,.32,.01,.41,.03,.14,.05,.28,.07,.43,.09,.15,.01,.3,.02,.46,.02,.18,.05,.36,.12,.53,.22s.35,.2,.53,.29c.09,.05,.21,.12,.34,.21,.05,0,.07,.01,.07,.03,.18,.3,.41,.57,.67,.82,.26,.25,.42,.58,.46,1,0,.18,.03,.36,.09,.53s.1,.35,.12,.53c.05,.25,.08,.51,.1,.77s.05,.52,.07,.77c.02,.21,.03,.41,.03,.6v.6c0,.11,0,.22-.02,.33s-.03,.21-.05,.33c-.05,.23-.08,.45-.1,.67s-.06,.43-.1,.64c0,.09-.02,.14-.07,.14-.23,.02-.33,.08-.29,.17s.06,.19,.09,.31c.02,.14,.01,.32-.03,.55,0,.02,0,.04-.02,.05s-.02,.03-.02,.05c.07,.18,.05,.3-.05,.36s-.22,.11-.36,.15c.18,.16,.27,.31,.27,.46s-.05,.31-.14,.5c-.05,.07-.07,.14-.09,.22s-.03,.15-.05,.22c-.05,.09-.09,.19-.12,.29l-.12,.36c-.05,.14-.07,.32-.07,.55,.02,.37-.06,.7-.24,1-.11,.16-.18,.34-.21,.55s-.06,.4-.1,.58c.02,.02,.05,.03,.07,.03s.05,.01,.07,.03c.18-.23,.33-.42,.45-.58,.25-.39,.51-.78,.77-1.17,.26-.39,.52-.78,.77-1.17,.18-.3,.37-.59,.55-.88,.18-.29,.37-.58,.55-.88,.16-.23,.31-.45,.45-.67s.28-.44,.45-.67c.04-.05,.08-.08,.1-.1,.02-.02,.06-.06,.1-.1l.07,.07c-.25,.39-.5,.78-.76,1.17-.25,.39-.51,.8-.79,1.24,.09-.02,.2-.09,.33-.19,.12-.1,.24-.22,.34-.34s.19-.25,.27-.36c.08-.11,.12-.21,.12-.27,.04-.07,.09-.14,.14-.22,.04-.08,.09-.15,.14-.22,.14-.18,.27-.34,.41-.48s.26-.3,.38-.48c.11-.16,.23-.31,.34-.46,.11-.15,.23-.31,.34-.5,.05-.07,.11-.14,.19-.21,.08-.07,.15-.14,.22-.21,.09-.11,.17-.23,.24-.34s.15-.23,.24-.34c.18-.23,.35-.45,.51-.65s.33-.42,.51-.65c.21-.27,.41-.54,.6-.81s.38-.53,.57-.81c.09-.04,.16-.09,.21-.14,.09-.04,.17-.1,.24-.17,.18-.23,.37-.46,.57-.69,.19-.23,.38-.46,.57-.69l.51-.62s.1-.07,.15-.07,.11-.01,.15-.03c0,.05,.02,.07,.07,.07-.07,.12-.14,.22-.21,.31-.07,.09-.14,.18-.21,.27-.21,.25-.42,.51-.64,.77-.22,.26-.43,.52-.64,.77-.21,.27-.41,.55-.62,.83s-.42,.54-.65,.79c-.11,.18-.24,.37-.38,.55s-.26,.37-.38,.55c-.23,.32-.44,.63-.64,.93s-.39,.61-.6,.93c-.14,.18-.28,.37-.43,.57-.15,.19-.29,.39-.43,.6-.05,.07-.12,.19-.21,.38-.21,.32-.42,.64-.64,.96-.22,.32-.44,.64-.67,.96Zm20-2.86c-.06,.17-.11,.35-.15,.53,0,.05-.01,.08-.03,.1s-.05,.06-.07,.1l-.82,1.34c-.14,.25-.28,.49-.43,.72-.15,.23-.29,.47-.43,.72-.14,.23-.27,.45-.39,.65-.13,.21-.26,.42-.39,.65-.11,.21-.23,.41-.36,.62-.13,.21-.25,.42-.36,.65-.07,.12-.12,.24-.15,.38s-.07,.28-.12,.41c-.09,.02-.18,.03-.27,.03,.02,.11,.04,.22,.05,.33,.01,.1,.02,.21,.02,.33,0,.05-.03,.09-.1,.12s-.12,.07-.14,.12c-.09,.16-.16,.32-.21,.48-.05,.16-.16,.3-.34,.41-.05,.02-.06,.07-.05,.15,.01,.08,0,.16-.02,.22-.14,.27-.27,.55-.41,.83-.14,.28-.26,.56-.38,.86-.07,.16-.13,.32-.17,.46-.05,.15-.09,.3-.14,.46v.17c-.18,.14-.28,.31-.29,.52-.01,.21-.05,.4-.12,.58-.09,.25-.19,.51-.29,.77-.1,.26-.2,.52-.29,.77-.07,.23-.13,.46-.19,.69-.06,.23-.11,.47-.15,.72-.02,.11-.05,.23-.07,.36-.02,.13-.03,.25-.03,.36-.02,.07-.01,.19,.03,.38-.05,.02-.09,.05-.14,.07-.05,.02-.09,.05-.14,.07,.04,.32,.09,.65,.12,.98s-.04,.66-.22,.98c.07,.07,.12,.15,.17,.24,.04,.09,.02,.21-.07,.34-.05,.07-.06,.15-.03,.26,.02,.1,.11,.18,.27,.22,.09,.02,.17,.07,.24,.14s.12,.13,.17,.17c0,.07-.03,.13-.1,.17s-.13,.09-.19,.12c-.06,.03-.1,.08-.14,.14s-.03,.15,.02,.29c-.21-.05-.42-.09-.64-.12-.22-.03-.38-.11-.5-.22-.25-.23-.48-.47-.69-.72s-.39-.51-.55-.79c-.11-.25-.21-.51-.27-.79l-.21-.82c-.07-.3-.1-.62-.1-.96,0-.53,.02-1.04,.05-1.53s.11-.99,.22-1.49c.02-.09,.01-.19-.03-.29s-.06-.2-.03-.29c.07-.18,.14-.37,.22-.57s.15-.39,.22-.6c.05-.14,.09-.28,.12-.43s.07-.3,.12-.46c.18-.5,.35-1.01,.51-1.51s.33-1.01,.51-1.51c.21-.57,.42-1.14,.64-1.7,.22-.56,.44-1.14,.67-1.73,.43-1.19,.91-2.39,1.44-3.6,.23-.5,.46-1,.7-1.49s.49-1,.74-1.53c.05-.09,.07-.17,.07-.24,0-.11-.03-.19-.1-.24s-.15-.02-.24,.07c-.25,.23-.5,.46-.76,.69-.25,.23-.51,.45-.79,.65-.44,.39-.84,.85-1.2,1.37-.02,.02-.05,.04-.07,.05-.02,.01-.05,.03-.07,.05-.23,.14-.42,.3-.57,.5-.15,.19-.29,.39-.43,.6-.07,.11-.15,.21-.24,.27s-.18,.16-.27,.27c-.11,.16-.23,.32-.36,.48s-.25,.32-.36,.48c-.07,.07-.08,.11-.03,.14,.07,.18,.05,.33-.07,.45s-.22,.23-.31,.34c-.11,.16-.23,.31-.36,.45s-.25,.29-.36,.45c-.11,.14-.21,.29-.29,.45-.08,.16-.18,.31-.29,.45-.16,.25-.32,.5-.48,.76-.16,.25-.32,.5-.48,.76-.11,.16-.22,.32-.33,.48-.1,.16-.21,.33-.33,.51-.02,.02-.03,.04-.03,.05,0,.01-.01,.03-.03,.05-.23,.23-.41,.48-.53,.76s-.26,.55-.39,.82c-.16,.25-.31,.51-.46,.79s-.3,.54-.46,.79c-.16,.3-.31,.58-.46,.86s-.3,.55-.46,.82c-.09,.18-.17,.37-.24,.55s-.16,.35-.27,.51-.23,.3-.36,.43l-.39,.39s-.04,.09-.05,.12-.04,.07-.09,.12v.03c-.05,.07-.1,.14-.15,.21s-.12,.16-.19,.27c-.09-.02-.21-.04-.34-.05s-.26-.06-.38-.15c-.18-.11-.36-.25-.51-.41-.16-.16-.29-.33-.38-.51-.09-.23-.19-.46-.31-.7-.12-.24-.08-.5,.1-.77h-.27c-.02-.11-.04-.22-.05-.33-.01-.1-.02-.2-.02-.29v-.36c0-.13,.01-.25,.03-.36,.02-.16,.04-.31,.07-.46,.02-.15,.04-.3,.07-.46,.04-.14,.07-.29,.07-.45s.02-.31,.07-.45c.21-.73,.41-1.45,.62-2.15,.21-.7,.41-1.42,.62-2.15,.05-.09,.11-.25,.21-.48,.18-.46,.36-.91,.53-1.36s.35-.9,.53-1.36c.16-.39,.32-.77,.48-1.14s.33-.74,.51-1.14c.25-.55,.51-1.11,.77-1.67,.26-.56,.52-1.12,.77-1.67,.21-.41,.41-.82,.62-1.22s.41-.81,.62-1.22,.42-.82,.64-1.24,.43-.82,.64-1.24c.05-.09,.11-.18,.19-.27,.08-.09,.14-.18,.19-.27,.09-.18,.14-.33,.14-.45-.25,.14-.46,.31-.64,.51s-.35,.42-.53,.65c-.02-.02-.04-.03-.05-.03s-.03-.01-.05-.03c.05-.09,.09-.18,.14-.27,.05-.09,.1-.18,.17-.27,.27-.25,.55-.51,.82-.77s.55-.53,.82-.81c.11-.11,.21-.25,.27-.39s.15-.29,.24-.43c.11-.21,.26-.3,.45-.27,.14,.05,.27,.09,.41,.12l.48,.12c.18-.11,.34-.1,.46,.03s.26,.27,.4,.41c.18,.21,.38,.4,.58,.58,.07,.07,.1,.11,.1,.14,.07,.34,.19,.66,.36,.96,.17,.3,.23,.64,.19,1.03-.07,.21-.18,.43-.34,.69-.14,.18-.28,.37-.43,.55-.15,.18-.28,.37-.39,.55-.12,.16-.22,.32-.31,.48-.09,.16-.19,.32-.31,.48-.05,.07-.09,.14-.12,.21-.03,.07-.09,.13-.15,.17-.23,.11-.37,.27-.43,.46s-.11,.39-.15,.6c0,.09-.03,.15-.1,.17-.16,.11-.27,.25-.34,.39s-.14,.3-.21,.46c-.09,.18-.21,.36-.34,.53s-.26,.35-.38,.53c-.11,.18-.22,.37-.31,.57-.09,.19-.18,.4-.27,.6-.11,.21-.22,.42-.33,.64s-.21,.44-.33,.67c-.02,.05-.04,.09-.05,.12s-.03,.06-.05,.09c-.18,.12-.3,.24-.36,.38-.06,.14-.11,.29-.15,.45-.02,.05-.13,.14-.31,.28,.02,.05,.04,.09,.05,.12s.03,.08,.05,.12c-.05,.07-.1,.14-.17,.22s-.13,.17-.17,.26c-.02,.05-.05,.1-.07,.17s-.03,.13-.03,.17c-.05,.11-.09,.23-.12,.34-.03,.11-.14,.15-.33,.1,.16,.32,.09,.58-.21,.79-.05,.05-.07,.12-.07,.22s-.02,.19-.07,.26-.09,.14-.14,.22c-.05,.08-.09,.12-.14,.12-.18-.05-.28-.03-.29,.05-.01,.08,0,.15,.05,.22-.09,.05-.18,.09-.26,.14s-.15,.09-.22,.14c.07,.05,.13,.1,.19,.15s.12,.11,.19,.16c-.02,.05-.05,.11-.07,.19s-.06,.18-.1,.29h-.03s-.04,0-.05,.02-.03,.02-.05,.02c-.11,.07-.18,.11-.21,.14,0,.02,0,.06,.02,.1s.04,.08,.09,.1c.16,.14,.16,.29,0,.45-.18,.14-.29,.31-.33,.52-.03,.21-.09,.4-.15,.58-.02,.05-.04,.1-.05,.17s-.04,.13-.09,.17c-.18,.14-.3,.3-.34,.5-.05,.2-.13,.38-.24,.57-.02,.02,0,.1,.07,.24,.07-.11,.13-.21,.17-.29s.09-.17,.14-.26c.11-.16,.21-.31,.27-.46,.07-.15,.16-.3,.27-.46,.11-.18,.24-.36,.38-.53s.26-.35,.38-.53c.09-.12,.17-.22,.22-.33s.12-.21,.19-.33c.11-.21,.22-.42,.31-.65,.09-.23,.23-.41,.41-.55,.18-.16,.3-.34,.36-.53s.17-.37,.33-.53c.14-.18,.27-.37,.39-.55,.13-.18,.26-.37,.39-.55,.05-.07,.11-.14,.21-.21s.19-.05,.31,.07c.05,.02,.1,.02,.17,0,.07-.02,.1-.06,.1-.1,.05-.14,.11-.25,.21-.33,.09-.08,.19-.17,.31-.26,.14-.11,.26-.25,.36-.4,.1-.15,.21-.29,.33-.43,.02-.02,.04-.04,.05-.07,.01-.02,.04-.06,.09-.1,.07-.11,.15-.19,.24-.24s.21,.02,.34,.21c-.18-.18-.23-.33-.14-.45,.09-.11,.19-.23,.31-.34,.27-.25,.54-.51,.81-.77l.81-.81c.16-.18,.32-.36,.48-.52,.16-.16,.33-.33,.51-.52,.07-.07,.15-.13,.24-.19,.09-.06,.18-.12,.27-.19,.07-.05,.17-.14,.31-.28,.05-.05,.1-.09,.15-.14,.06-.05,.14-.03,.26,.03l.21-.07s-.09-.08-.14-.1c-.05-.02-.09-.06-.14-.1,.05-.05,.11-.14,.21-.28-.05-.02-.09-.04-.14-.05-.05-.01-.1-.04-.17-.09h.76s.03-.05,.03-.07c-.14-.09-.25-.16-.34-.21,.05-.02,.09-.05,.12-.09s.07-.04,.12-.02c.18,.05,.33,.02,.43-.09s.21-.21,.33-.33c.23-.27,.49-.34,.79-.21,.09,.02,.25,.06,.48,.1,.05,.02,.1,.03,.15,.03s.07,.06,.05,.17c0,.02,.03,.05,.09,.09s.11,.04,.15,.02c.25-.05,.44,0,.57,.14s.27,.26,.43,.38c.11,.11,.21,.25,.29,.39s.18,.28,.29,.4c.21,.21,.32,.42,.34,.65,.02,.23,.06,.47,.1,.72v.17c.16,.18,.21,.36,.15,.53Zm-19.21-.26s-.03-.04-.03-.05-.01-.03-.03-.05c.09-.09,.18-.18,.26-.27,.08-.09,.17-.19,.26-.31l.07,.07-.51,.62Zm.58,12.46c.07-.27,.15-.55,.24-.82-.16,0-.27,.01-.34,.03-.02,0-.05,.02-.07,.07-.02,.05-.03,.09-.03,.14-.05,.18-.07,.37-.09,.57-.01,.19-.03,.41-.05,.64,.16-.05,.24-.13,.26-.26,.01-.13,.04-.25,.09-.36Zm.76-2.99c.18-.14,.16-.3-.07-.48-.09,.14-.14,.22-.14,.24,.05,.11,.03,.2-.03,.26s-.13,.12-.17,.19c-.12,.11-.17,.27-.17,.48,0,.16-.02,.31-.07,.45-.05,.14-.09,.29-.14,.45,0,.05,.01,.1,.03,.15,.02,.06,.05,.13,.07,.22,.11-.16,.2-.29,.26-.39,.06-.1,.11-.21,.15-.33v-.7c0-.19,.09-.37,.27-.53Zm.34-1.65c.11-.07,.18-.11,.21-.14,.09-.16,.15-.32,.17-.48,0-.02-.02-.11-.07-.27-.05,0-.07,.01-.07,.03l-.31,.62s0,.13,.07,.24Zm.45,3.13c.05-.11,.09-.21,.14-.27l.14-.21-.17-.17c-.05,.07-.09,.14-.12,.21l-.12,.24s.07,.07,.14,.21Zm.82-2.47c.07-.14,.13-.26,.19-.38,.06-.11,.11-.23,.15-.34-.41,.09-.53,.33-.34,.72Zm5.8-6.11c.09-.11,.19-.22,.29-.31s.22-.19,.36-.31c-.02,.07-.03,.14-.03,.21s-.02,.13-.07,.17c-.09,.11-.19,.21-.31,.29s-.22,.18-.31,.29l-.34,.48-.34,.48c-.05,.07-.13,.13-.24,.17v-.14c.18-.23,.35-.45,.5-.67s.31-.44,.5-.67Zm1.3-1.51c-.05,.48-.26,.72-.65,.72,.14-.14,.25-.26,.34-.38s.19-.23,.31-.34Zm.93-.69s-.08-.09-.1-.14c.11-.07,.21-.14,.29-.22s.17-.15,.26-.22l.1,.1c-.09,.09-.18,.17-.26,.24-.08,.07-.18,.15-.29,.24Z"/><path class="c" d="M369.01,42.97c-.02,.23,0,.46,.09,.69,.08,.23,.11,.47,.09,.72-.05,.37-.1,.73-.17,1.08s-.14,.72-.21,1.08c-.09,.32-.2,.64-.31,.96-.12,.32-.23,.64-.34,.96-.05,.11-.12,.21-.21,.27-.09,.07-.15,.15-.17,.24-.09,.39-.26,.73-.5,1.01s-.46,.58-.67,.88c-.25,.32-.5,.64-.76,.94s-.5,.62-.76,.94l-.96,1.03-.96,1.03c-.16,.18-.33,.37-.5,.55-.17,.18-.35,.37-.53,.55-.11,.12-.26,.22-.43,.33s-.34,.21-.5,.33c-.07,.05-.13,.11-.19,.21s-.12,.17-.19,.24c-.05,.05-.09,.1-.12,.17s-.07,.1-.12,.1c-.32,.05-.57,.2-.76,.46s-.41,.46-.69,.6c-.21,.09-.4,.2-.58,.33s-.39,.21-.62,.26c-.25,.07-.47,.19-.65,.38-.18,.18-.39,.33-.62,.45-.34,.16-.69,.3-1.05,.43-.36,.13-.7,.25-1.05,.36-.41,.11-.81,.24-1.2,.38-.39,.14-.79,.25-1.2,.34-.34,.07-.7,.12-1.06,.15s-.73,.06-1.1,.09c-.3,.02-.47,.16-.51,.41-.05,.27-.11,.54-.21,.79l-.27,.76c-.02,.07-.03,.14-.02,.22s.02,.15,.02,.22c0,.11-.01,.21-.03,.27-.05,.11-.09,.22-.12,.31s-.07,.21-.12,.34c.02,0,0,0-.05-.02s-.11,0-.15,.02-.09,.06-.14,.1-.06,.08-.03,.1c.09,.14,.11,.27,.07,.41l-.14,.41c-.02,.09,0,.17,.07,.24-.18,.32-.35,.6-.51,.82,.23,.18,.33,.34,.31,.46s-.17,.31-.45,.57c.02,.05,.07,.1,.14,.17,.02,.02,.05,.04,.07,.05s.06,.04,.1,.09c-.09,.14-.18,.27-.26,.41s-.15,.26-.22,.38c.02,.14,.04,.27,.05,.41s0,.28-.02,.41c0,.21-.03,.41-.09,.62s-.1,.41-.12,.62c-.05,.27-.07,.55-.09,.82s-.03,.55-.05,.82c-.02,.11-.05,.24-.07,.38s-.05,.3-.07,.48c.18,.18,.26,.42,.24,.72s-.05,.61-.07,.93c.02,.07,.03,.15,.02,.24s0,.14,.05,.14c.07,.05,.15,.07,.26,.07s.19-.02,.26-.07c.25-.18,.49-.37,.7-.55s.45-.37,.7-.55c.09-.07,.18-.13,.27-.19s.18-.12,.27-.19c.05,.14,.1,.27,.15,.41s.05,.25-.02,.34c-.14,.37-.3,.72-.5,1.06s-.41,.68-.64,1c-.05,.11-.15,.19-.33,.22s-.31,.09-.43,.15c-.16,.09-.3,.15-.43,.19s-.25-.02-.36-.15c-.05-.05-.1-.06-.15-.05s-.11,.02-.15,.02c-.43,0-.78-.17-1.03-.51-.11-.18-.25-.34-.41-.46s-.3-.28-.41-.46c-.18-.3-.35-.6-.5-.91s-.27-.64-.36-.98c-.11-.57-.21-1.16-.27-1.75-.07-.6-.11-1.19-.14-1.79-.02-.53-.01-1.07,.03-1.61s.1-1.09,.17-1.61c.09-.53,.2-1.04,.33-1.53s.25-1,.36-1.53c.11-.46,.23-.9,.34-1.32s.23-.86,.34-1.32c.05-.11,.09-.22,.12-.33s.07-.2,.12-.29c0-.07,.01-.13,.03-.17l-.07-.14c-.43-.3-.87-.67-1.3-1.12s-.78-.9-1.03-1.36c-.14-.3-.25-.61-.34-.93s-.17-.64-.24-.96c-.11-.53-.1-1.02,.05-1.48,.15-.46,.35-.91,.6-1.37,.02-.05,.06-.09,.1-.12s.1-.09,.17-.15c-.02,.27-.03,.53-.02,.76,.01,.23,0,.46-.05,.69,0,.14-.02,.28-.05,.43-.03,.15-.06,.29-.09,.43,0,.14,.01,.27,.03,.41s.13,.24,.31,.31c.07,.07,.1,.13,.1,.17,.07,.18,.13,.37,.17,.55s.1,.35,.17,.51c.09,.11,.2,.23,.33,.36s.26,.21,.39,.26c.39,.16,.88,.08,1.48-.24,.07-.07,.15-.14,.24-.21s.16-.16,.21-.27c.25-.55,.48-1.11,.69-1.68,.21-.57,.41-1.14,.62-1.72,.11-.27,.21-.55,.29-.84,.08-.29,.18-.57,.29-.84,.14-.34,.28-.68,.43-1s.28-.64,.39-.96c.07-.16,.13-.31,.19-.46s.11-.3,.15-.46c.3-.62,.58-1.24,.86-1.87s.57-1.25,.89-1.87c.21-.46,.49-1.02,.84-1.68s.65-1.21,.88-1.65c.16-.3,.31-.59,.46-.88,.15-.28,.29-.57,.43-.84,.09-.14,.18-.27,.27-.39,.09-.12,.16-.23,.21-.33,.34,.05,.66,.08,.94,.1,.29,.02,.55,.06,.81,.1,.09,.02,.18,.05,.26,.09,.08,.03,.17,.07,.26,.12,.11,.05,.21,.11,.27,.19,.07,.08,.16,.14,.27,.19,.11,.05,.23,.1,.34,.15,.11,.06,.17,.17,.17,.33,0,.09,.03,.14,.1,.14,.34,.14,.45,.4,.31,.79,0,.05,0,.09-.02,.12s0,.06,.02,.09c.23,.12,.33,.24,.31,.38-.02,.14-.06,.29-.1,.45-.23,.34-.53,.81-.89,1.39s-.74,1.16-1.13,1.73c-.43,.66-.91,1.36-1.41,2.09-.05,.05-.07,.11-.07,.19s-.01,.17-.03,.26c.05,.02,.07,.04,.09,.05,.01,.01,.04,.03,.09,.05,.16-.23,.34-.45,.55-.65l.26-.33c.08-.1,.18-.22,.29-.36-.02,.11-.05,.21-.07,.29-.02,.08-.05,.15-.07,.22,.18,0,.38-.06,.58-.17s.34-.26,.41-.45c.18-.57,.55-1.04,1.1-1.41,.18-.11,.34-.26,.46-.43s.26-.33,.39-.46c.25-.25,.49-.51,.7-.79s.47-.5,.77-.69c.46-.3,.87-.64,1.24-1.01,.37-.38,.81-.65,1.34-.81h.07s.05-.01,.07-.03c.05-.32,.18-.5,.39-.55,.22-.04,.41-.12,.57-.24,.05-.02,.09-.08,.14-.17-.05-.02-.09-.05-.14-.09s-.09-.04-.14-.02c-.16,.09-.31,.18-.46,.27-.15,.09-.31,.2-.5,.31-.18,.09-.35,.18-.51,.27-.16,.09-.32,.18-.48,.27,.64-.5,1.3-.93,1.99-1.29,.69-.35,1.44-.59,2.27-.7,.87-.07,1.36,.32,1.48,1.17,.02,.09,.06,.17,.1,.24,.04,.07,.09,.14,.14,.21,.21,.21,.38,.42,.53,.65,.15,.23,.21,.52,.19,.86Zm-24.51,28.05s.09-.09,.14-.12,.07-.08,.07-.12c-.02-.07-.05-.14-.09-.21s-.07-.15-.12-.24c-.02,.02-.05,.04-.09,.05-.03,.01-.07,.03-.12,.05,.05,.09,.08,.18,.1,.27,.02,.09,.06,.19,.1,.31Zm1.48-6.49c.11-.39,.22-.77,.33-1.13s.21-.73,.33-1.1c.05-.16,.1-.31,.15-.45s.11-.29,.15-.45c.02-.09,0-.18-.07-.27s-.13-.18-.17-.27c-.02-.05-.08-.06-.17-.03s-.15,.06-.17,.1c-.07,.16-.13,.31-.19,.46s-.12,.3-.19,.46c-.11,.39-.21,.77-.29,1.15s-.17,.76-.26,1.15c-.09,.32-.18,.63-.26,.93s-.14,.6-.19,.89c-.05,.27-.13,.54-.24,.79s-.15,.53-.1,.82c0,.11-.03,.23-.09,.34s0,.23,.19,.34c-.23,.16-.34,.31-.33,.46s.07,.3,.19,.46c-.16,.18-.23,.33-.22,.45s.11,.29,.29,.52c.02-.07,.05-.13,.07-.19,.02-.06,.03-.11,.03-.15,.05-.25,.07-.5,.09-.76s.07-.5,.19-.76c.14-.37,.24-.73,.31-1.08s.15-.72,.24-1.08c.05-.25,.11-.51,.19-.79s.14-.55,.19-.82Zm.79,2.71c.05-.14,.09-.27,.12-.41s.06-.27,.09-.41c-.05-.02-.07-.04-.09-.05s-.04-.03-.09-.05c-.09,.14-.19,.26-.29,.38s-.18,.24-.22,.38c-.05,.18-.07,.36-.09,.53s-.02,.35-.02,.53c0,.05,.02,.14,.07,.27,.05-.05,.09-.08,.12-.1s.06-.06,.09-.1c.05-.16,.1-.31,.15-.46s.11-.31,.15-.5Zm.03-3.4c.05-.16,.1-.3,.17-.43s.13-.25,.17-.36c0-.09-.05-.18-.14-.27,0-.02-.02-.03-.05-.03s-.06,.01-.09,.03c-.07,.05-.11,.21-.14,.48s0,.47,.07,.58Zm3.26-10.92c.16-.34,.3-.69,.43-1.03s.26-.69,.39-1.03c.05-.16,.11-.31,.21-.46s.11-.33,.07-.53c-.05-.05-.04-.11,.02-.19s.11-.14,.15-.19c.02-.07,.06-.13,.1-.19s.09-.11,.14-.15c.07-.21,.14-.41,.22-.6s.15-.38,.22-.57c.14-.34,.27-.68,.41-1.01s.27-.66,.41-.98c.02-.05,.02-.1,0-.15s-.03-.12-.03-.19c-.05,.05-.1,.09-.15,.12s-.11,.07-.15,.12c-.11,.25-.23,.5-.36,.76s-.25,.5-.36,.76c-.21,.46-.41,.9-.62,1.32s-.4,.86-.58,1.32c-.11,.25-.23,.5-.36,.76s-.23,.5-.33,.76c-.16,.39-.31,.79-.45,1.18-.14,.4-.29,.8-.45,1.18l-.48,1.24c-.16,.41-.33,.81-.51,1.2-.05,.11-.08,.21-.1,.27s-.06,.15-.1,.24c-.05,.14-.1,.28-.17,.43s-.14,.31-.21,.5c.18-.05,.34-.07,.48-.09s.23-.05,.27-.12c.16-.27,.3-.55,.41-.84s.23-.57,.34-.84c.05-.16,.09-.32,.12-.48,.03-.16,.07-.32,.12-.48,.16-.34,.32-.68,.48-1.01,.16-.33,.3-.67,.41-1.01Zm9.2,1.82c.32-.07,.42-.27,.31-.62-.32,.25-.62,.49-.91,.7-.29,.22-.58,.44-.88,.67-.37,.3-.74,.58-1.12,.86-.38,.27-.8,.5-1.25,.69-.07,.05-.15,.09-.24,.12-.09,.03-.16,.09-.21,.15-.34,.37-.74,.62-1.2,.77-.46,.15-.92,.31-1.37,.5-.3,.11-.6,.24-.89,.38s-.61,.27-.93,.41c.05,.02,.08,.05,.1,.09s.06,.04,.1,.02c.18-.05,.37-.09,.57-.14s.39-.1,.6-.17c.09-.05,.18-.1,.26-.15s.18-.11,.29-.15c.23-.14,.47-.21,.74-.22,.26-.01,.46-.14,.6-.39,.02-.05,.06-.06,.12-.05,.06,.01,.11,0,.15-.02,.07-.02,.14-.04,.22-.05,.08-.01,.16-.04,.26-.09,.25-.14,.5-.28,.76-.43,.25-.15,.48-.31,.69-.5,.09-.09,.21-.15,.36-.19,.15-.03,.29-.07,.41-.12,.12-.05,.24-.11,.34-.19s.18-.21,.22-.39h.07c.25-.23,.51-.45,.79-.67,.27-.22,.54-.43,.79-.64,.07-.07,.15-.12,.24-.17Zm-6.7,2.68c.07,.18,.14,.27,.22,.26s.18-.05,.29-.12c.07-.05,.14-.08,.22-.1,.08-.02,.16-.06,.26-.1,.14-.05,.24-.09,.31-.14,.27-.07,.46-.14,.55-.21,.18-.14,.35-.27,.51-.41,.16-.14,.33-.26,.51-.38,.53-.39,1.06-.77,1.6-1.15s1.07-.76,1.6-1.15c.16-.11,.3-.24,.43-.38s.25-.26,.36-.38c-.02-.05-.06-.09-.1-.14-1.08,.85-2.16,1.65-3.26,2.42-1.1,.77-2.27,1.43-3.5,1.98Zm12.91-14.56c.18-.11,.3-.27,.36-.46,.06-.19,.02-.38-.12-.57-.05-.11-.1-.22-.15-.33s-.12-.21-.19-.33c-.09,.05-.19,.1-.31,.15-.11,.06-.23,.12-.34,.19-.18,.16-.37,.33-.57,.5s-.39,.32-.6,.43c-.32,.14-.59,.3-.81,.48s-.41,.43-.57,.76c-.02,.05-.07,.07-.14,.09s-.14,.04-.21,.09c-.14,.07-.27,.13-.41,.19s-.27,.13-.41,.22c.07,.07,.12,.13,.15,.17s.07,.09,.12,.14c-.23,.23-.44,.46-.64,.69s-.42,.46-.67,.69c-.27,.27-.54,.56-.81,.86s-.51,.61-.74,.93c-.32,.5-.68,.98-1.08,1.44s-.75,.95-1.05,1.48c-.25,.43-.53,.85-.84,1.24-.31,.39-.6,.79-.88,1.2-.32,.46-.62,.93-.89,1.41s-.56,.96-.86,1.44c-.02,.05-.03,.1-.03,.17s-.01,.16-.03,.28c.53-.25,1.02-.49,1.49-.7,.47-.22,.93-.45,1.39-.7,.73-.43,1.42-.91,2.08-1.44,.65-.53,1.3-1.08,1.94-1.65,1.1-.94,2.11-1.97,3.02-3.09,.5-.62,.97-1.26,1.39-1.94s.8-1.39,1.12-2.15c.07-.18,.14-.38,.22-.58s.03-.43-.15-.69c-.05-.05-.04-.14,.02-.29s.12-.25,.19-.29Zm-9.17,5.18c-.12,.11-.23,.23-.34,.36-.12,.13-.24,.26-.38,.39,.3,.05,.5-.01,.62-.17,.11-.16,.15-.35,.1-.58Zm4.24,5.39c.12-.11,.23-.22,.35-.33s.23-.21,.35-.33c-.07-.07-.11-.12-.14-.17-.23,.21-.46,.41-.67,.62-.21,.21-.42,.4-.64,.58,.05,.05,.09,.1,.14,.17s.09,.09,.14,.07c.12-.04,.22-.1,.32-.15,.09-.06,.2-.12,.32-.19-.09-.14-.15-.23-.18-.27Zm-.57-9.82c.25-.21,.5-.42,.76-.64s.5-.42,.76-.6c.11-.09,.22-.17,.33-.24s.21-.12,.33-.17c-.34,.3-.69,.59-1.05,.88s-.69,.59-1.01,.91c-.02-.05-.06-.09-.1-.14Zm1.68,8.96c.16-.23,.31-.46,.46-.7s.31-.5,.5-.77l-.41,.07c-.16,.18-.31,.38-.46,.58s-.29,.4-.43,.58c-.02,.05-.02,.1,0,.15,.02,.06,.05,.1,.07,.12,.11,.05,.21,.03,.27-.03Zm.58-10.68s-.04,.03-.05,.03-.03,.01-.05,.03l.07-.07h.03Zm-.03,0s.04-.03,.05-.03,.03-.01,.05-.03l-.07,.07h-.03Z"/><path class="c" d="M382.22,49.25c.21-.21,.41-.41,.62-.6s.42-.39,.65-.6l.55-.55,.55-.55,.1,.1c-.23,.25-.45,.51-.67,.77s-.45,.52-.7,.77c.09,.09,.16,.12,.21,.09s.09-.08,.14-.14,.1-.11,.15-.15,.12-.05,.19,0c-.34,.37-.67,.73-.98,1.1s-.66,.68-1.05,.93c-.07,.11-.13,.21-.19,.29s-.11,.17-.15,.26l-.41,.62c-.07,.07-.14,.14-.21,.22s-.14,.17-.21,.26c-.07,.09-.14,.18-.21,.27-.07,.09-.14,.18-.21,.27-.11,.14-.23,.27-.34,.39-.11,.13-.23,.25-.34,.36-.07,.07-.13,.15-.17,.24-.07,.32-.2,.58-.39,.79-.19,.21-.37,.42-.53,.65-.18,.25-.36,.49-.53,.7-.17,.22-.35,.45-.53,.7-.18,.25-.37,.49-.55,.72-.18,.23-.37,.47-.55,.72-.27,.37-.54,.72-.81,1.08-.26,.35-.54,.7-.84,1.04-.32,.39-.63,.8-.93,1.23s-.66,.81-1.1,1.13c-.14,.11-.29,.22-.45,.31s-.32,.18-.48,.27c-.07,.05-.19,.05-.38,0-.18,0-.35,0-.5-.02s-.31-.03-.5-.05c-.05,0-.09,0-.12,.02s-.06,0-.09-.02c-.53-.37-.98-.77-1.37-1.21s-.58-1.02-.58-1.73c-.02-.32-.01-.63,.03-.92,.05-.3,.09-.6,.14-.92,.05-.32,.09-.63,.14-.94s.11-.62,.21-.94c.18-.57,.36-1.13,.53-1.69,.17-.56,.35-1.12,.53-1.69,.11-.37,.24-.73,.38-1.08,.14-.35,.27-.72,.41-1.08,.16-.34,.31-.69,.46-1.03s.31-.7,.5-1.06c.32-.71,.65-1.41,1-2.11s.69-1.4,1.03-2.11c.34-.73,.69-1.45,1.05-2.15,.35-.7,.7-1.41,1.05-2.15,.04-.11,.1-.22,.17-.33s.15-.2,.24-.29c.14-.14,.27-.19,.39-.15,.12,.03,.26,.1,.39,.19,.07,.05,.19,.07,.38,.07,.11-.02,.22-.03,.31-.03s.15,.09,.17,.27c.05,.12,.15,.17,.31,.17,.09,.02,.18,.02,.26,0,.08-.02,.17-.02,.26,0,.32,.05,.58,.21,.79,.48s.34,.57,.41,.89c.05,.3,.03,.57-.05,.82-.08,.25-.17,.5-.26,.76-.12,.32-.26,.63-.45,.93-.18,.3-.37,.61-.55,.93-.18,.3-.38,.59-.58,.88s-.4,.58-.58,.88c-.09,.11-.19,.24-.29,.38s-.18,.27-.22,.41c-.05,.16-.12,.3-.22,.41s-.13,.26-.09,.45c0,.09-.03,.15-.1,.17-.3,.23-.49,.51-.58,.84-.09,.33-.25,.62-.48,.88-.18,.21-.33,.44-.43,.7s-.25,.52-.43,.77c-.05,.07-.07,.15-.07,.24s-.02,.18-.07,.27c-.11,.27-.23,.54-.36,.81-.13,.26-.25,.52-.36,.77-.05,.09-.08,.17-.1,.24l-.55,1.1,.17,.17c-.07,.14-.14,.28-.22,.43s-.15,.3-.22,.46c-.02,.04-.06,.08-.1,.1s-.06,.06-.03,.1c.07,.2,.05,.39-.07,.55-.11,.16-.21,.33-.27,.51-.5,1.03-.8,2.04-.89,3.05-.02,.16-.05,.32-.09,.48-.03,.16-.07,.32-.12,.48-.02,.05-.03,.1-.02,.17s.02,.12,.02,.17c.05-.05,.1-.07,.15-.09s.11-.04,.15-.09c.46-.57,.9-1.13,1.34-1.69,.43-.56,.88-1.11,1.34-1.66,.39-.52,.79-1.03,1.2-1.52,.41-.49,.83-.97,1.24-1.45,.37-.43,.73-.85,1.1-1.27,.37-.41,.73-.82,1.1-1.23,.09-.11,.17-.22,.24-.33s.15-.21,.24-.33c.02,.02,.05,.04,.07,.05,.02,.01,.05,.03,.07,.05-.12,.18-.24,.36-.38,.51-.14,.16-.26,.32-.38,.48l.1,.1c.09-.07,.19-.13,.29-.19,.1-.06,.19-.13,.26-.22,.14-.16,.26-.33,.36-.5s.21-.34,.33-.5c.11-.14,.24-.26,.38-.38s.26-.23,.38-.34c.18-.18,.34-.36,.48-.53s.29-.35,.45-.53c.11-.11,.21-.23,.29-.36s.17-.25,.26-.36Zm-11.23,4.09c-.07,0-.11-.01-.14-.03-.16,.16-.29,.38-.38,.67-.09,.29-.09,.5,0,.64,.09-.23,.18-.45,.26-.65s.17-.41,.26-.62Zm.34-1.48c.05,.07,.1,.12,.17,.14,.07,.02,.13-.03,.17-.17,.07-.18,.14-.38,.21-.58s.14-.4,.21-.58c0-.02-.01-.05-.03-.07s-.05-.06-.07-.1c-.11,.25-.22,.49-.33,.7s-.21,.44-.33,.67Zm6.49,2.64c.11-.23,.23-.44,.36-.64,.12-.19,.35-.3,.67-.33-.12-.09-.21-.17-.27-.22-.07-.06-.16-.03-.27,.09s-.22,.22-.31,.33c-.09,.1-.18,.21-.27,.33-.18,.18-.15,.33,.1,.45Zm2.44-3.43c-.11,.14-.24,.27-.38,.41l-.41,.41-.1-.1c.11-.14,.24-.27,.38-.41l.41-.41,.1,.1Zm1.06-1.41c-.05,.27-.16,.49-.34,.65l-.55,.48s-.07-.02-.07-.07c.16-.18,.32-.36,.48-.53s.32-.35,.48-.53Zm2.13,13.25c-.16-.05-.3-.09-.43-.14s-.26-.09-.39-.14c-.25-.18-.45-.42-.58-.7s-.27-.58-.41-.88c-.23-.5-.33-1.01-.31-1.51s.06-1.02,.1-1.54c.14-1.46,.5-2.92,1.1-4.36,.16-.39,.3-.78,.41-1.17,.11-.39,.25-.78,.41-1.17,.18-.53,.38-1.05,.6-1.58s.44-1.05,.67-1.58c.02-.05,.03-.11,.02-.19s0-.17,.02-.26c.05-.09,.1-.19,.17-.31l.21-.34c.05-.09,.07-.16,.07-.21,.05-.09,.07-.16,.07-.21-.09,0-.16,.01-.21,.03-.14,0-.32,.02-.55,.07-.02-.05-.03-.1-.03-.17l.41-.1c-.07-.18-.05-.31,.07-.38s.22-.15,.31-.24c.23-.18,.44-.37,.64-.55s.34-.41,.43-.69c.14-.43,.41-.65,.82-.65,.07,0,.13-.02,.19-.05s.11-.06,.15-.09c.09,0,.18-.01,.26-.03s.14-.01,.19,.03c.14,.05,.27,.11,.39,.21s.26,.17,.39,.24c.11,.07,.23,.13,.34,.19s.22,.13,.31,.22c.18,.18,.37,.36,.55,.53,.18,.17,.33,.36,.45,.57,.09,.18,.13,.38,.12,.6-.01,.22-.04,.42-.09,.6-.05,.25-.14,.49-.27,.7s-.27,.43-.41,.64c-.14,.25-.29,.48-.46,.69-.17,.21-.28,.46-.33,.76-.02,.07-.09,.13-.19,.19s-.21,.11-.33,.15c-.39,.78-.78,1.55-1.17,2.32-.39,.77-.78,1.54-1.17,2.32l-.03-.03c0,.18-.01,.32-.03,.41-.05,.16-.11,.3-.21,.41-.09,.12-.1,.26-.03,.45l-.03,.03c-.27,.16-.41,.37-.39,.62s-.04,.5-.15,.76c-.18,.32-.3,.68-.34,1.06s-.14,.77-.27,1.13c-.07,.18-.11,.36-.14,.53s-.05,.35-.07,.53-.05,.36-.09,.53-.12,.33-.26,.46c-.25,.25-.35,.55-.31,.89,0,.07-.02,.14-.07,.21s-.08,.13-.1,.17Zm-1.24-13.7c-.09,.05-.18,.1-.27,.15s-.19,.11-.31,.15c-.07,.05-.17,.09-.31,.14,.25-.25,.49-.49,.72-.7s.46-.45,.69-.7c.02,0,.05,.01,.07,.03-.09,.11-.18,.22-.27,.31s-.18,.19-.27,.31c-.02,.05-.03,.15-.03,.31Z"/><path class="c" d="M401.73,44.82c-.16,.14-.3,.25-.43,.34s-.25,.19-.36,.31c-.05,.05-.09,.1-.12,.15s-.07,.11-.12,.15c-.25,.3-.51,.6-.77,.89-.26,.3-.52,.6-.77,.89-.05,.07-.11,.13-.19,.17-.08,.05-.14,.09-.19,.14-.14,.14-.27,.28-.39,.43-.13,.15-.26,.29-.39,.43-.09,.11-.24,.24-.45,.38-.12,.18-.24,.38-.38,.58-.14,.21-.28,.41-.41,.62-.25,.39-.5,.76-.74,1.12s-.49,.73-.74,1.12c-.14,.25-.17,.51-.09,.77,.08,.26,.22,.49,.43,.67,.27,.18,.5,.39,.69,.62,.34,.41,.71,.79,1.1,1.12,.39,.33,.8,.65,1.24,.95,.57,.37,1.14,.73,1.7,1.08,.56,.35,1.12,.72,1.66,1.08,.39,.25,.77,.51,1.13,.79s.72,.56,1.06,.86c.18,.16,.33,.34,.45,.53s.23,.38,.34,.57c.07,.07,.08,.13,.03,.17-.11,.11-.22,.23-.31,.36s-.19,.21-.31,.26c-.37,.11-.73,.21-1.1,.27s-.74,.1-1.13,.1c-.27,0-.55,.04-.82,.12s-.55,.04-.82-.12c-.05-.05-.11-.06-.19-.05-.08,.01-.15,.02-.22,.02l-2.68,.21c-.23,.02-.45,.04-.67,.05s-.44,0-.67-.02c-.18-.02-.37-.06-.57-.12s-.38-.11-.57-.15c-.11-.05-.22-.06-.31-.05s-.19,0-.31-.02c-.18-.02-.36-.05-.53-.07s-.35-.06-.53-.1c-.07,0-.11-.01-.14-.03-.32-.25-.68-.42-1.08-.51s-.76-.26-1.08-.51c-.3-.21-.59-.4-.88-.58s-.59-.37-.91-.55c-.21-.11-.39-.26-.55-.43s-.29-.39-.38-.67c.11,.07,.23,.13,.34,.19s.23,.11,.34,.15c.21,.05,.42,.08,.64,.1s.43,.06,.64,.1c.39,.05,.77,.09,1.13,.12s.74,.07,1.13,.12c.71,.02,1.42,.02,2.13,0,.57-.05,1.14-.11,1.7-.19s1.14-.15,1.73-.22c.16-.02,.32-.03,.48-.03s.33-.01,.51-.03c.04-.02,.1-.04,.17-.05s.16-.04,.27-.09c-.09-.07-.16-.13-.21-.17-.05-.05-.1-.09-.17-.14-.39-.32-.78-.64-1.17-.94-.39-.31-.78-.62-1.17-.94-.37-.32-.73-.64-1.08-.94-.35-.31-.67-.66-.94-1.05-.23-.32-.47-.62-.74-.89s-.42-.62-.46-1.03c-.02-.11-.08-.22-.17-.33s-.15-.21-.17-.33c-.11-.34-.19-.69-.24-1.05s-.14-.69-.27-1.01c-.14-.37-.14-.69-.02-.96s.28-.54,.46-.79c.21-.3,.42-.59,.64-.88s.44-.58,.67-.88c.18-.25,.38-.49,.58-.7s.41-.45,.62-.7l.55-.76c.18-.25,.38-.49,.58-.72l3.81-4.12c.18-.21,.37-.41,.57-.62s.38-.4,.57-.58c.46-.41,.95-.47,1.48-.17,.14,.07,.27,.14,.39,.22,.13,.08,.26,.17,.39,.26,.05,.05,.09,.07,.14,.07,.5-.05,.9,.06,1.2,.33,.3,.26,.56,.58,.79,.94,.16,.25,.3,.49,.41,.72,.02,.07,.01,.15-.03,.24-.02,.16-.07,.32-.15,.48-.08,.16-.06,.33,.05,.51l-.07,.17c-.18,.3-.31,.61-.39,.93s-.2,.64-.36,.96c-.05,.09-.08,.17-.1,.24s-.09,.1-.21,.1c-.07,0-.1,.06-.1,.17-.18,.39-.36,.79-.53,1.2s-.35,.82-.53,1.24c-.14,.32-.27,.64-.39,.96s-.25,.64-.36,.96c-.05,.09-.1,.17-.17,.24-.21,.11-.35,.28-.45,.5s-.19,.43-.31,.64c-.09,.21-.18,.42-.26,.64s-.18,.42-.29,.6c-.11,.18-.22,.38-.33,.6-.1,.22-.2,.43-.29,.64-.07,.16-.14,.32-.21,.48-.07,.16-.08,.33-.03,.51,.05,.23-.07,.29-.34,.17-.32-.14-.55-.31-.7-.51-.15-.21-.25-.43-.31-.67-.06-.24-.08-.49-.07-.74,.01-.25,.03-.51,.05-.79,.05-.55,.15-1.09,.31-1.63,.16-.54,.34-1.07,.55-1.6,.21-.46,.39-.92,.57-1.37s.35-.92,.53-1.37c.05-.11,.07-.23,.07-.36s.02-.28,.07-.46Z"/></g><g><path class="d" d="M354.41,88.16v-18.82h4.55v15.13h7.83v3.69h-12.38Z"/><path class="d" d="M371.4,72.4c-.64,0-1.18-.21-1.64-.63s-.68-.93-.68-1.52,.23-1.09,.68-1.51,1-.63,1.63-.63,1.18,.21,1.63,.63c.45,.42,.68,.93,.68,1.52s-.22,1.09-.68,1.51c-.45,.42-.99,.63-1.62,.63Zm-2.26,15.76v-14.12h4.49v14.12h-4.49Z"/><path class="d" d="M380.98,80.11v8.05h-4.49v-14.12h4.27v2.59h.16c.31-.86,.85-1.54,1.6-2.04s1.65-.74,2.69-.74,1.85,.22,2.59,.67,1.3,1.06,1.71,1.86c.41,.79,.61,1.72,.6,2.78v9h-4.49v-8.12c0-.78-.19-1.4-.59-1.84-.4-.44-.96-.66-1.67-.66-.47,0-.89,.1-1.25,.31-.36,.21-.63,.5-.83,.88-.19,.38-.29,.84-.3,1.38Z"/><path class="d" d="M392.9,88.16v-18.82h4.49v18.82h-4.49Zm4.05-3.7l.02-5.36h.63l3.97-5.06h5.09l-5.9,7.24h-1.18l-2.62,3.17Zm4.72,3.7l-3.7-5.86,2.96-3.19,5.93,9.05h-5.19Z"/></g><path class="d" d="M313.02,66.76c-6.32,3.55-15.55,8.3-22.01,11.8l-.38-.18-17.1-7.87c-15.77-7.31-35.24-16.65-50.97-24.26l-3.44-1.66,3.53-1.45c21.97-9.04,45.89-18.78,67.98-27.29l.39-.15,.34,.16c8.59,4.13,17.17,8.26,25.7,12.52-4.43-1.75-8.84-3.56-13.24-5.38-4.4-1.82-8.82-3.61-13.21-5.47h.73c-11.17,4.94-22.37,9.81-33.61,14.58-8.39,3.58-25.35,10.68-33.77,14.18l.09-3.11c15.74,7.68,35.02,17.24,50.55,25.13l16.74,8.6h-.72c6.54-3.05,15.89-7.25,22.4-10.16h0Z"/><polygon class="d" points="261.23 69.11 261.23 82.75 290.64 98.57 320.7 81.11 320.7 68.33 290.96 83.7 261.23 69.11"/><polygon class="d" points="238.8 58.15 238.8 86.05 235.84 97.02 241.76 89.58 245.09 100.3 245.09 61.35 238.8 58.15"/></g></svg>